<svg width="48" height="48" viewBox="0 0 48 48" fill="none" xmlns="http://www.w3.org/2000/svg">
<rect x="0.5" y="0.5" width="47" height="47" rx="23.5" fill="white" stroke="#CDD1D0"/>
<path d="M24.0547 17.5385C25.138 17.5385 26.4959 16.8061 27.3045 15.8296C28.0369 14.9447 28.5709 13.7088 28.5709 12.473C28.5709 12.3051 28.5556 12.1373 28.5251 12C27.3198 12.0458 25.8703 12.8086 25.0006 13.8309C24.3141 14.609 23.6885 15.8296 23.6885 17.0807C23.6885 17.2638 23.719 17.4469 23.7343 17.5079C23.8106 17.5232 23.9326 17.5385 24.0547 17.5385ZM20.2403 36C21.7203 36 22.3764 35.0083 24.2225 35.0083C26.0992 35.0083 26.5111 35.9695 28.1589 35.9695C29.7762 35.9695 30.8595 34.4743 31.8818 33.0095C33.0261 31.3312 33.499 29.6834 33.5296 29.6071C33.4228 29.5766 30.3255 28.3102 30.3255 24.7552C30.3255 21.6732 32.7667 20.2848 32.904 20.178C31.2867 17.8589 28.8303 17.7978 28.1589 17.7978C26.3433 17.7978 24.8633 18.8964 23.9326 18.8964C22.9256 18.8964 21.5982 17.8589 20.0267 17.8589C17.0362 17.8589 14 20.3306 14 24.9994C14 27.8983 15.1291 30.965 16.5175 32.9485C17.7076 34.6268 18.7451 36 20.2403 36Z" fill="black"/>
</svg>
