<svg width="31" height="30" viewBox="0 0 31 30" fill="none" xmlns="http://www.w3.org/2000/svg">
<path d="M3.25 15C3.25 9.10744 3.25 6.16116 5.08059 4.33059C6.91116 2.5 9.85744 2.5 15.75 2.5C21.6425 2.5 24.5889 2.5 26.4194 4.33059C28.25 6.16116 28.25 9.10744 28.25 15C28.25 20.8925 28.25 23.8389 26.4194 25.6694C24.5889 27.5 21.6425 27.5 15.75 27.5C9.85744 27.5 6.91116 27.5 5.08059 25.6694C3.25 23.8389 3.25 20.8925 3.25 15Z" fill="#4B4B4B"/>
<path fill-rule="evenodd" clip-rule="evenodd" d="M9.39226 14.0625H3.2503C3.25 14.3665 3.25 14.6789 3.25 15C3.25 15.3211 3.25 15.6335 3.2503 15.9375H13.2342C13.2541 15.9377 13.2741 15.9379 13.2942 15.9379H13.4537C13.0303 17.7294 11.4209 19.0625 9.5 19.0625C8.98224 19.0625 8.5625 19.4822 8.5625 20C8.5625 20.5177 8.98224 20.9375 9.5 20.9375C11.825 20.9375 13.838 19.6011 14.8125 17.6545V27.4997C15.1165 27.5 15.4289 27.5 15.75 27.5C16.0711 27.5 16.3835 27.5 16.6875 27.4997V17.6545C17.662 19.6011 19.675 20.9375 22 20.9375C22.5177 20.9375 22.9375 20.5177 22.9375 20C22.9375 19.4822 22.5177 19.0625 22 19.0625C20.0791 19.0625 18.4696 17.7294 18.0462 15.9379H18.2061C18.2261 15.9379 18.2461 15.9377 18.2661 15.9375H28.2497C28.25 15.6335 28.25 15.3211 28.25 15C28.25 14.6789 28.25 14.3665 28.2497 14.0625H22.1081C22.5466 13.5146 22.8744 12.8684 23.0531 12.1535C23.7259 9.46224 21.2881 7.02447 18.5969 7.69729C17.8819 7.87604 17.2355 8.20384 16.6875 8.64255V2.5003C16.3835 2.5 16.0711 2.5 15.75 2.5C15.4289 2.5 15.1165 2.5 14.8125 2.5003V8.64226C14.2646 8.20369 13.6184 7.876 12.9035 7.69729C10.2122 7.02447 7.77447 9.46224 8.44729 12.1535C8.626 12.8684 8.9537 13.5146 9.39226 14.0625ZM14.8125 14.0625H13.2468C11.8345 14.0412 10.6098 13.0727 10.2663 11.6987C9.93679 10.3807 11.1307 9.18679 12.4487 9.51631C13.8227 9.85981 14.7912 11.0845 14.8125 12.4968V14.0625ZM18.2536 14.0625H16.6879V12.5442L16.6877 12.507C16.7045 11.0904 17.6742 9.86065 19.0516 9.51631C20.3696 9.18679 21.5636 10.3807 21.234 11.6987C20.8905 13.0727 19.6657 14.0412 18.2536 14.0625Z" fill="white"/>
</svg>
