<svg width="24" height="24" viewBox="0 0 24 24" fill="none" xmlns="http://www.w3.org/2000/svg">
<path d="M12 12.625C9.35831 12.625 7.20831 10.475 7.20831 7.83329C7.20831 5.19163 9.35831 3.04163 12 3.04163C14.6416 3.04163 16.7916 5.19163 16.7916 7.83329C16.7916 10.475 14.6416 12.625 12 12.625ZM12 4.29163C10.05 4.29163 8.45831 5.88329 8.45831 7.83329C8.45831 9.78329 10.05 11.375 12 11.375C13.95 11.375 15.5416 9.78329 15.5416 7.83329C15.5416 5.88329 13.95 4.29163 12 4.29163Z" fill="#1B2C65"/>
<path d="M15.1834 20.9583C14.8667 20.9583 14.5667 20.8416 14.35 20.625C14.0917 20.3666 13.975 19.9916 14.0334 19.6L14.1917 18.475C14.2334 18.1833 14.4084 17.8416 14.6167 17.625L17.5667 14.675C18.75 13.4917 19.7917 14.1667 20.3 14.675C20.7334 15.1083 20.9584 15.575 20.9584 16.0416C20.9584 16.5166 20.7417 16.9583 20.3 17.4L17.35 20.35C17.1417 20.5583 16.7917 20.7333 16.5 20.775L15.375 20.9333C15.3083 20.95 15.25 20.9583 15.1834 20.9583ZM18.925 15.2666C18.775 15.2666 18.6417 15.3667 18.45 15.5583L15.5 18.5083C15.475 18.5333 15.4334 18.6166 15.4334 18.65L15.2834 19.6916L16.325 19.5416C16.3584 19.5333 16.4417 19.4917 16.4667 19.4667L19.4167 16.5166C19.55 16.3833 19.7084 16.1916 19.7084 16.0416C19.7084 15.9166 19.6084 15.7417 19.4167 15.5583C19.2167 15.3583 19.0667 15.2666 18.925 15.2666Z" fill="#1B2C65"/>
<path d="M19.4334 18.0167C19.3751 18.0167 19.3167 18.0084 19.2667 17.9917C18.1667 17.6834 17.2917 16.8084 16.9834 15.7084C16.8917 15.375 17.0834 15.0334 17.4167 14.9417C17.7501 14.85 18.0917 15.0417 18.1834 15.375C18.3751 16.0583 18.9167 16.6 19.6001 16.7917C19.9334 16.8834 20.1251 17.2333 20.0334 17.5583C19.9584 17.8333 19.7084 18.0167 19.4334 18.0167Z" fill="#1B2C65"/>
<path d="M4.8418 20.9583C4.50013 20.9583 4.2168 20.675 4.2168 20.3333C4.2168 16.775 7.70849 13.875 12.0002 13.875C12.9085 13.875 13.8085 14.0084 14.6501 14.2584C14.9835 14.3584 15.1668 14.7083 15.0668 15.0333C14.9668 15.3667 14.6168 15.55 14.2918 15.45C13.5585 15.2333 12.7918 15.1167 12.0002 15.1167C8.40015 15.1167 5.4668 17.45 5.4668 20.325C5.4668 20.675 5.18346 20.9583 4.8418 20.9583Z" fill="#1B2C65"/>
</svg>
