<svg width="24" height="24" viewBox="0 0 24 24" fill="none" xmlns="http://www.w3.org/2000/svg">
<path d="M12 10.7666C11.6583 10.7666 11.375 10.4832 11.375 10.1416V7.36658C11.375 7.02491 11.6583 6.74158 12 6.74158C12.3417 6.74158 12.625 7.02491 12.625 7.36658V10.1416C12.625 10.4916 12.3417 10.7666 12 10.7666Z" fill="#1B2C65"/>
<path d="M12.0167 18.9583C9.86666 18.9583 7.72499 18.6167 5.68332 17.9333C4.92499 17.6833 4.34999 17.1417 4.09999 16.4583C3.84999 15.775 3.93332 14.9917 4.34166 14.3083L5.39999 12.5417C5.63332 12.15 5.84166 11.4167 5.84166 10.9583V9.20832C5.84166 5.79999 8.60832 3.03333 12.0167 3.03333C15.425 3.03333 18.1917 5.79999 18.1917 9.20832V10.9583C18.1917 11.4083 18.4 12.15 18.6333 12.5417L19.6917 14.3083C20.0833 14.9583 20.15 15.7333 19.8917 16.4417C19.6333 17.15 19.0667 17.6917 18.35 17.9333C16.3083 18.625 14.1667 18.9583 12.0167 18.9583ZM12.0167 4.29166C9.29999 4.29166 7.09166 6.49999 7.09166 9.21666V10.9667C7.09166 11.6417 6.82499 12.6167 6.47499 13.1917L5.41666 14.9667C5.19999 15.325 5.14999 15.7083 5.27499 16.0417C5.39999 16.375 5.68332 16.625 6.08332 16.7583C9.91666 18.0333 14.1333 18.0333 17.9667 16.7583C18.325 16.6417 18.6 16.375 18.725 16.025C18.8583 15.675 18.8167 15.2917 18.625 14.9667L17.5667 13.2C17.2167 12.625 16.95 11.65 16.95 10.975V9.22499C16.9417 6.49999 14.7333 4.29166 12.0167 4.29166Z" fill="#1B2C65"/>
<path d="M12 21.0833C11.1083 21.0833 10.2333 20.7167 9.59998 20.0834C8.96664 19.45 8.59998 18.575 8.59998 17.6833H9.84998C9.84998 18.25 10.0833 18.8 10.4833 19.2C10.8833 19.6 11.4333 19.8333 12 19.8333C13.1833 19.8333 14.15 18.8667 14.15 17.6833H15.4C15.4 19.5583 13.875 21.0833 12 21.0833Z" fill="#1B2C65"/>
</svg>
