<svg width="24" height="24" viewBox="0 0 24 24" fill="none" xmlns="http://www.w3.org/2000/svg">
<path d="M14.5 20.9583H9.49999C4.97499 20.9583 3.04166 19.025 3.04166 14.5V9.49996C3.04166 4.97496 4.97499 3.04163 9.49999 3.04163H14.5C19.025 3.04163 20.9583 4.97496 20.9583 9.49996V14.5C20.9583 19.025 19.025 20.9583 14.5 20.9583ZM9.49999 4.29163C5.65832 4.29163 4.29166 5.65829 4.29166 9.49996V14.5C4.29166 18.3416 5.65832 19.7083 9.49999 19.7083H14.5C18.3417 19.7083 19.7083 18.3416 19.7083 14.5V9.49996C19.7083 5.65829 18.3417 4.29163 14.5 4.29163H9.49999Z" fill="#1B2C65"/>
<path d="M9.50001 10.9583C8.23334 10.9583 7.20834 9.93333 7.20834 8.66667C7.20834 7.4 8.23334 6.375 9.50001 6.375C10.7667 6.375 11.7917 7.4 11.7917 8.66667C11.7917 9.93333 10.7667 10.9583 9.50001 10.9583ZM9.50001 7.625C8.92501 7.625 8.45834 8.09167 8.45834 8.66667C8.45834 9.24167 8.92501 9.70833 9.50001 9.70833C10.075 9.70833 10.5417 9.24167 10.5417 8.66667C10.5417 8.09167 10.075 7.625 9.50001 7.625Z" fill="#1B2C65"/>
<path d="M4.22497 18.4167C4.02497 18.4167 3.82497 18.3167 3.70831 18.1417C3.51664 17.8583 3.59164 17.4667 3.88331 17.275L7.99164 14.5167C8.89164 13.9083 10.1333 13.9833 10.95 14.675L11.225 14.9167C11.6416 15.275 12.35 15.275 12.7583 14.9167L16.225 11.9417C17.1083 11.1833 18.5 11.1833 19.3916 11.9417L20.75 13.1083C21.0083 13.3333 21.0416 13.725 20.8166 13.9917C20.5916 14.25 20.2 14.2833 19.9333 14.0583L18.575 12.8917C18.1583 12.5333 17.45 12.5333 17.0333 12.8917L13.5666 15.8667C12.6833 16.625 11.2916 16.625 10.4 15.8667L10.125 15.625C9.74164 15.3 9.10831 15.2667 8.68331 15.5583L4.57497 18.3167C4.46664 18.3833 4.34164 18.4167 4.22497 18.4167Z" fill="#1B2C65"/>
</svg>
