<svg width="24" height="24" viewBox="0 0 24 24" fill="none" xmlns="http://www.w3.org/2000/svg">
<path d="M14.5 20.9583H9.49998C5.82498 20.9583 4.70831 19.8416 4.70831 16.1666V7.83329C4.70831 4.15829 5.82498 3.04163 9.49998 3.04163H14.5C18.175 3.04163 19.2916 4.15829 19.2916 7.83329V16.1666C19.2916 19.8416 18.175 20.9583 14.5 20.9583ZM9.49998 4.29163C6.51665 4.29163 5.95831 4.85829 5.95831 7.83329V16.1666C5.95831 19.1416 6.51665 19.7083 9.49998 19.7083H14.5C17.4833 19.7083 18.0416 19.1416 18.0416 16.1666V7.83329C18.0416 4.85829 17.4833 4.29163 14.5 4.29163H9.49998Z" fill="#1B2C65"/>
<path d="M13.6666 7.20837H10.3333C9.99165 7.20837 9.70831 6.92504 9.70831 6.58337C9.70831 6.24171 9.99165 5.95837 10.3333 5.95837H13.6666C14.0083 5.95837 14.2916 6.24171 14.2916 6.58337C14.2916 6.92504 14.0083 7.20837 13.6666 7.20837Z" fill="#1B2C65"/>
<path d="M12 18.55C10.9417 18.55 10.0834 17.6917 10.0834 16.6333C10.0834 15.575 10.9417 14.7167 12 14.7167C13.0584 14.7167 13.9167 15.575 13.9167 16.6333C13.9167 17.6917 13.0584 18.55 12 18.55ZM12 15.9583C11.6334 15.9583 11.3334 16.2583 11.3334 16.625C11.3334 16.9917 11.6334 17.2917 12 17.2917C12.3667 17.2917 12.6667 16.9917 12.6667 16.625C12.6667 16.2583 12.3667 15.9583 12 15.9583Z" fill="#1B2C65"/>
</svg>
