<svg width="24" height="24" viewBox="0 0 24 24" fill="none" xmlns="http://www.w3.org/2000/svg">
<path d="M12 13.8082C10.225 13.8082 8.77502 12.3666 8.77502 10.5832C8.77502 8.79991 10.225 7.36658 12 7.36658C13.775 7.36658 15.225 8.80824 15.225 10.5916C15.225 12.3749 13.775 13.8082 12 13.8082ZM12 8.61658C10.9167 8.61658 10.025 9.49991 10.025 10.5916C10.025 11.6832 10.9084 12.5666 12 12.5666C13.0917 12.5666 13.975 11.6832 13.975 10.5916C13.975 9.49991 13.0834 8.61658 12 8.61658Z" fill="#1B2C65"/>
<path d="M12 20.9666C10.7667 20.9666 9.52502 20.5 8.55836 19.575C6.10002 17.2083 3.38336 13.4333 4.40836 8.94163C5.33336 4.86663 8.89169 3.04163 12 3.04163C12 3.04163 12 3.04163 12.0084 3.04163C15.1167 3.04163 18.675 4.86663 19.6 8.94996C20.6167 13.4416 17.9 17.2083 15.4417 19.575C14.475 20.5 13.2334 20.9666 12 20.9666ZM12 4.29163C9.57503 4.29163 6.45836 5.58329 5.63336 9.21663C4.73336 13.1416 7.20002 16.525 9.43336 18.6666C10.875 20.0583 13.1334 20.0583 14.575 18.6666C16.8 16.525 19.2667 13.1416 18.3834 9.21663C17.55 5.58329 14.425 4.29163 12 4.29163Z" fill="#1B2C65"/>
</svg>
