<svg width="24" height="24" viewBox="0 0 24 24" fill="none" xmlns="http://www.w3.org/2000/svg">
<path d="M8.66668 20.125C8.64168 20.125 8.61668 20.125 8.60001 20.125C8.25834 20.0833 8.00834 19.775 8.05001 19.4333L9.71668 4.43332C9.75834 4.09165 10.0667 3.84999 10.4083 3.88332C10.75 3.92499 11 4.23332 10.9583 4.57499L9.29168 19.575C9.25001 19.8917 8.98334 20.125 8.66668 20.125Z" fill="#1B2C65"/>
<path d="M13.6667 20.125C13.6417 20.125 13.6167 20.125 13.6 20.125C13.2583 20.0833 13.0083 19.775 13.05 19.4333L14.7167 4.43332C14.7583 4.09165 15.0583 3.84999 15.4083 3.88332C15.75 3.92499 16 4.23332 15.9583 4.57499L14.2917 19.575C14.25 19.8917 13.9833 20.125 13.6667 20.125Z" fill="#1B2C65"/>
<path d="M19.9167 10.125H4.91669C4.57502 10.125 4.29169 9.84167 4.29169 9.5C4.29169 9.15833 4.57502 8.875 4.91669 8.875H19.9167C20.2584 8.875 20.5417 9.15833 20.5417 9.5C20.5417 9.84167 20.2584 10.125 19.9167 10.125Z" fill="#1B2C65"/>
<path d="M19.0833 15.125H4.08331C3.74165 15.125 3.45831 14.8417 3.45831 14.5C3.45831 14.1583 3.74165 13.875 4.08331 13.875H19.0833C19.425 13.875 19.7083 14.1583 19.7083 14.5C19.7083 14.8417 19.425 15.125 19.0833 15.125Z" fill="#1B2C65"/>
</svg>
