<svg width="24" height="24" viewBox="0 0 24 24" fill="none" xmlns="http://www.w3.org/2000/svg">
<path d="M12 20.9583C7.05835 20.9583 3.04169 16.9416 3.04169 12C3.04169 7.05829 7.05835 3.04163 12 3.04163C16.9417 3.04163 20.9584 7.05829 20.9584 12C20.9584 16.9416 16.9417 20.9583 12 20.9583ZM12 4.29163C7.75002 4.29163 4.29169 7.74996 4.29169 12C4.29169 16.25 7.75002 19.7083 12 19.7083C16.25 19.7083 19.7084 16.25 19.7084 12C19.7084 7.74996 16.25 4.29163 12 4.29163Z" fill="#1B2C65"/>
<path d="M15.0917 15.275C14.9833 15.275 14.875 15.25 14.775 15.1833L12.1917 13.6416C11.55 13.2583 11.075 12.4166 11.075 11.675V8.2583C11.075 7.91663 11.3583 7.6333 11.7 7.6333C12.0417 7.6333 12.325 7.91663 12.325 8.2583V11.675C12.325 11.975 12.575 12.4166 12.8333 12.5666L15.4167 14.1083C15.7167 14.2833 15.8083 14.6666 15.6333 14.9666C15.5083 15.1666 15.3 15.275 15.0917 15.275Z" fill="#1B2C65"/>
</svg>
