<svg width="24" height="24" viewBox="0 0 24 24" fill="none" xmlns="http://www.w3.org/2000/svg">
<path d="M14.5 20.9583H9.49999C4.97499 20.9583 3.04166 19.025 3.04166 14.5V9.49996C3.04166 4.97496 4.97499 3.04163 9.49999 3.04163H14.5C19.025 3.04163 20.9583 4.97496 20.9583 9.49996V14.5C20.9583 19.025 19.025 20.9583 14.5 20.9583ZM9.49999 4.29163C5.65832 4.29163 4.29166 5.65829 4.29166 9.49996V14.5C4.29166 18.3416 5.65832 19.7083 9.49999 19.7083H14.5C18.3417 19.7083 19.7083 18.3416 19.7083 14.5V9.49996C19.7083 5.65829 18.3417 4.29163 14.5 4.29163H9.49999Z" fill="#1B2C65"/>
<path d="M14.9167 10.75C13.8833 10.75 13.0417 9.90833 13.0417 8.875C13.0417 7.84167 13.8833 7 14.9167 7C15.95 7 16.7917 7.84167 16.7917 8.875C16.7917 9.90833 15.95 10.75 14.9167 10.75ZM14.9167 8.25C14.575 8.25 14.2917 8.53333 14.2917 8.875C14.2917 9.21667 14.575 9.5 14.9167 9.5C15.2583 9.5 15.5417 9.21667 15.5417 8.875C15.5417 8.53333 15.2583 8.25 14.9167 8.25Z" fill="#1B2C65"/>
<path d="M9.08334 10.75C8.05001 10.75 7.20834 9.90833 7.20834 8.875C7.20834 7.84167 8.05001 7 9.08334 7C10.1167 7 10.9583 7.84167 10.9583 8.875C10.9583 9.90833 10.1167 10.75 9.08334 10.75ZM9.08334 8.25C8.74168 8.25 8.45834 8.53333 8.45834 8.875C8.45834 9.21667 8.74168 9.5 9.08334 9.5C9.42501 9.5 9.70834 9.21667 9.70834 8.875C9.70834 8.53333 9.42501 8.25 9.08334 8.25Z" fill="#1B2C65"/>
<path d="M12 18.2084C9.58333 18.2084 7.625 16.2417 7.625 13.8334C7.625 13.075 8.24167 12.4584 9 12.4584H15C15.7583 12.4584 16.375 13.075 16.375 13.8334C16.375 16.2417 14.4167 18.2084 12 18.2084ZM9 13.7084C8.93333 13.7084 8.875 13.7667 8.875 13.8334C8.875 15.5584 10.275 16.9584 12 16.9584C13.725 16.9584 15.125 15.5584 15.125 13.8334C15.125 13.7667 15.0667 13.7084 15 13.7084H9V13.7084Z" fill="#1B2C65"/>
</svg>
