<svg width="24" height="24" viewBox="0 0 24 24" fill="none" xmlns="http://www.w3.org/2000/svg">
<path d="M19.5 6.98332C16.725 6.70832 13.9333 6.56665 11.15 6.56665C9.5 6.56665 7.85 6.64998 6.2 6.81665L4.5 6.98332" stroke="#292D32" stroke-linecap="round" stroke-linejoin="round"/>
<path d="M9.08331 6.14163L9.26665 5.04996C9.39998 4.25829 9.49998 3.66663 10.9083 3.66663H13.0916C14.5 3.66663 14.6083 4.29163 14.7333 5.05829L14.9166 6.14163" stroke="#292D32" stroke-linecap="round" stroke-linejoin="round"/>
<path d="M17.7084 9.6167L17.1667 18.0084C17.075 19.3167 17 20.3334 14.675 20.3334H9.32502C7.00002 20.3334 6.92502 19.3167 6.83335 18.0084L6.29169 9.6167" stroke="#292D32" stroke-linecap="round" stroke-linejoin="round"/>
<path d="M10.6083 15.75H13.3833" stroke="#292D32" stroke-linecap="round" stroke-linejoin="round"/>
<path d="M9.91669 12.4166H14.0834" stroke="#292D32" stroke-linecap="round" stroke-linejoin="round"/>
</svg>
