<svg width="15" height="16" viewBox="0 0 15 16" fill="none" xmlns="http://www.w3.org/2000/svg">
<path d="M7.19759 1.15091C7.35165 0.949697 7.64836 0.949697 7.80242 1.15091L8.96206 2.666C9.05848 2.79193 9.21934 2.84562 9.36936 2.80194L11.1745 2.27639C11.4143 2.20659 11.6543 2.38578 11.6638 2.64155L11.735 4.56748C11.741 4.72755 11.8403 4.86811 11.9868 4.92336L13.7478 5.5881C13.9817 5.67638 14.0735 5.9663 13.9347 6.17894L12.8903 7.78005C12.8035 7.91314 12.8035 8.08687 12.8903 8.21997L13.9347 9.82106C14.0735 10.0337 13.9817 10.3236 13.7478 10.4119L11.9868 11.0767C11.8403 11.1319 11.741 11.2725 11.735 11.4326L11.6638 13.3585C11.6543 13.6142 11.4143 13.7934 11.1745 13.7236L9.36936 13.1981C9.21934 13.1544 9.05848 13.2081 8.96206 13.334L7.80242 14.8491C7.64836 15.0503 7.35165 15.0503 7.19759 14.8491L6.03794 13.334C5.94155 13.2081 5.78069 13.1544 5.63065 13.1981L3.82551 13.7236C3.58577 13.7934 3.34568 13.6142 3.33623 13.3585L3.26499 11.4326C3.25906 11.2725 3.15965 11.1319 3.01327 11.0767L1.25215 10.4119C1.01827 10.3236 0.926561 10.0337 1.06527 9.82106L2.10966 8.21997C2.19647 8.08687 2.19647 7.91314 2.10966 7.78005L1.06527 6.17894C0.926561 5.9663 1.01827 5.67638 1.25215 5.5881L3.01327 4.92336C3.15965 4.86811 3.25906 4.72755 3.26499 4.56748L3.33623 2.64155C3.34568 2.38578 3.58577 2.20659 3.82551 2.27639L5.63065 2.80194C5.78069 2.84562 5.94155 2.79193 6.03794 2.666L7.19759 1.15091Z" fill="white" stroke="white"/>
<path d="M4.79297 7.99985L6.59852 9.61523L10.2096 6.38446" stroke="#11227B" stroke-width="1.4" stroke-linecap="round" stroke-linejoin="round"/>
</svg>
