<svg width="18" height="16" viewBox="0 0 18 16" fill="none" xmlns="http://www.w3.org/2000/svg">
<path fill-rule="evenodd" clip-rule="evenodd" d="M3.06058 8.02956L9.00474 13.5885L14.9489 8.02957C16.3571 6.56307 16.0561 4.37879 14.8217 3.10817C14.2183 2.48713 13.4214 2.12537 12.5402 2.1899C11.659 2.25442 10.596 2.75329 9.48743 4.05097C9.36525 4.194 9.18945 4.27594 9.00474 4.27594C8.82003 4.27594 8.64422 4.194 8.52204 4.05098C7.41358 2.75337 6.34879 2.25257 5.46505 2.18646C4.58133 2.12035 3.78238 2.48077 3.17822 3.10015C1.94355 4.36592 1.63955 6.54987 3.06058 8.02956ZM9.00474 2.64708C7.8773 1.51253 6.6969 0.94612 5.55808 0.860926C4.25552 0.763483 3.10363 1.30373 2.27124 2.15708C0.635926 3.83359 0.122427 6.87556 2.16114 8.98046C2.16863 8.9882 2.17631 8.99574 2.18416 9.00309L8.57266 14.9776C8.81789 15.2069 9.19158 15.2069 9.43681 14.9776L15.8253 9.00309C15.8332 8.99575 15.8409 8.9882 15.8484 8.98047C17.8768 6.88617 17.3603 3.84459 15.7305 2.16699C14.9002 1.31231 13.7506 0.768919 12.4491 0.864215C11.3113 0.94753 10.1319 1.51287 9.00474 2.64708Z" fill="white"/>
</svg>
