<svg width="16" height="16" viewBox="0 0 16 16" fill="none" xmlns="http://www.w3.org/2000/svg">
<path d="M14.1335 13.0574L11.2647 10.1887C11.9554 9.2692 12.3282 8.15001 12.327 7.00003C12.327 4.06264 9.93717 1.67285 6.99978 1.67285C4.0624 1.67285 1.67261 4.06264 1.67261 7.00003C1.67261 9.93741 4.0624 12.3272 6.99978 12.3272C8.14976 12.3285 9.26895 11.9556 10.1884 11.2649L13.0572 14.1337C13.2024 14.2635 13.3918 14.3328 13.5865 14.3274C13.7812 14.3219 13.9664 14.2422 14.1042 14.1044C14.2419 13.9667 14.3217 13.7815 14.3271 13.5868C14.3326 13.3921 14.2633 13.2027 14.1335 13.0574ZM3.19466 7.00003C3.19466 6.24745 3.41782 5.51176 3.83594 4.88601C4.25405 4.26026 4.84833 3.77255 5.54363 3.48455C6.23892 3.19655 7.004 3.12119 7.74213 3.26802C8.48025 3.41484 9.15826 3.77724 9.69041 4.3094C10.2226 4.84155 10.585 5.51956 10.7318 6.25768C10.8786 6.99581 10.8033 7.76089 10.5153 8.45619C10.2273 9.15148 9.73955 9.74576 9.1138 10.1639C8.48805 10.582 7.75237 10.8052 6.99978 10.8052C5.99097 10.8039 5.02383 10.4027 4.31049 9.68932C3.59715 8.97598 3.19587 8.00884 3.19466 7.00003Z" fill="white"/>
</svg>
