<svg width="28" height="28" viewBox="0 0 28 28" fill="none" xmlns="http://www.w3.org/2000/svg">
<path d="M5.83398 21.8983V20.7317H7.71815V11.4858C7.71815 9.96139 8.20037 8.62089 9.16482 7.46433C10.1308 6.30856 11.3539 5.58833 12.834 5.30367V3.5H15.1673V5.30367C16.6482 5.58833 17.8709 6.30894 18.8353 7.4655C19.7998 8.62283 20.282 9.96333 20.282 11.487V20.7305H22.1673V21.8972L5.83398 21.8983ZM13.9972 24.9492C13.4776 24.9492 13.0343 24.7644 12.6672 24.395C12.3 24.0263 12.1165 23.583 12.1165 23.065H15.8848C15.8848 23.5861 15.7001 24.0306 15.3307 24.3985C14.9604 24.7656 14.5159 24.9492 13.9972 24.9492ZM8.88482 20.7305H19.1165V11.487C19.1165 10.0691 18.6183 8.862 17.622 7.86567C16.6264 6.87011 15.4193 6.37233 14.0007 6.37233C12.582 6.37233 11.3749 6.87011 10.3793 7.86567C9.38376 8.862 8.88598 10.0691 8.88598 11.487L8.88482 20.7305Z" fill="black"/>
</svg>
