<svg width="28" height="28" viewBox="0 0 28 28" fill="none" xmlns="http://www.w3.org/2000/svg">
<path d="M13.9967 24.9492C13.4771 24.9492 13.0338 24.7644 12.6667 24.395C12.2996 24.0263 12.116 23.583 12.116 23.065H15.8843C15.8843 23.5861 15.6996 24.0302 15.3302 24.3973C14.9599 24.7652 14.5154 24.9492 13.9967 24.9492ZM5.8335 21.8972V20.7305H7.71766V11.487C7.71766 9.96256 8.19989 8.62206 9.16433 7.4655C10.1303 6.30894 11.3534 5.58833 12.8335 5.30367V3.5H15.1668V4.75417C14.9981 5.01706 14.8503 5.28267 14.7235 5.551C14.5959 5.81856 14.4968 6.10322 14.426 6.405L14.2183 6.38167C14.1507 6.37544 14.0779 6.37233 14.0002 6.37233C12.5823 6.37233 11.3752 6.87011 10.3788 7.86567C9.38327 8.862 8.8855 10.0691 8.8855 11.487V20.7305H19.116V13.6383C19.3011 13.6749 19.4917 13.7033 19.6877 13.7235C19.8852 13.7429 20.0836 13.7453 20.2827 13.7305V20.7305H22.1668V21.8972H5.8335Z" fill="black"/>
<circle cx="20" cy="8" r="3.5" fill="#F34040"/>
</svg>
