<svg width="24" height="24" viewBox="0 0 24 24" fill="none" xmlns="http://www.w3.org/2000/svg">
<path d="M18.3333 19H6.66667C5.74619 19 5 18.2165 5 17.25L5 6.75C5 5.7835 5.74619 5 6.66667 5L15 5C15.9205 5 16.6667 5.7835 16.6667 6.75V7.625M18.3333 19C17.4129 19 16.6667 18.2165 16.6667 17.25L16.6667 7.625M18.3333 19C19.2538 19 20 18.2165 20 17.25V9.375C20 8.4085 19.2538 7.625 18.3333 7.625L16.6667 7.625M13.3333 5L10 5M8.33333 15.5H13.3333M8.33333 8.5H13.3333V12H8.33333V8.5Z" stroke="#50565F" stroke-width="1.2" stroke-linecap="square" stroke-linejoin="round"/>
</svg>
