<svg width="24" height="24" viewBox="0 0 24 24" fill="none" xmlns="http://www.w3.org/2000/svg">
<path d="M18 10.1364C18 14.9091 12 19 12 19C12 19 6 14.9091 6 10.1364C6 8.5089 6.63214 6.94809 7.75736 5.7973C8.88258 4.64651 10.4087 4 12 4C13.5913 4 15.1174 4.64651 16.2426 5.7973C17.3679 6.94809 18 8.5089 18 10.1364Z" stroke="#11227B" stroke-width="1.2" stroke-linecap="round" stroke-linejoin="round"/>
<path d="M12 12C13.1046 12 14 11.1046 14 10C14 8.89543 13.1046 8 12 8C10.8954 8 10 8.89543 10 10C10 11.1046 10.8954 12 12 12Z" stroke="#11227B" stroke-width="1.2" stroke-linecap="round" stroke-linejoin="round"/>
</svg>
