<svg  viewBox="0 0 24 22" fill="none" xmlns="http://www.w3.org/2000/svg">
<path d="M11.4021 20.2654C11.5546 20.2654 11.7109 20.2312 11.8711 20.1627C12.0313 20.0935 12.1608 20.0095 12.2596 19.9107L21.3549 10.8154C21.6482 10.5222 21.8741 10.2227 22.0328 9.91704C22.1922 9.60982 22.2719 9.27304 22.2719 8.90671C22.2719 8.53571 22.1922 8.17559 22.0328 7.82637C21.8741 7.47637 21.6482 7.15748 21.3549 6.86971L16.9799 2.49471C16.6914 2.20148 16.3947 1.98643 16.0898 1.84954C15.7857 1.71265 15.4481 1.64421 15.0771 1.64421C14.7108 1.64421 14.3705 1.71265 14.0563 1.84954C13.7421 1.98643 13.4457 2.20148 13.1673 2.49471L12.1523 3.50971L14.3106 5.67621C14.5416 5.90332 14.7139 6.16193 14.8274 6.45204C14.941 6.74215 14.9982 7.03693 14.9989 7.33637C14.9989 7.94304 14.8006 8.44509 14.4039 8.84254C14.0057 9.23921 13.5033 9.43754 12.8966 9.43754C12.5972 9.43754 12.3051 9.39204 12.0204 9.30104C11.735 9.21004 11.4787 9.05059 11.2516 8.82271L9.01978 6.59904L3.98212 11.6355C3.86389 11.7538 3.77523 11.8879 3.71611 12.038C3.657 12.1889 3.62745 12.3406 3.62745 12.493C3.62745 12.7684 3.71573 12.9955 3.89228 13.1744C4.06884 13.3533 4.29478 13.4427 4.57012 13.4427C4.72256 13.4427 4.87889 13.4077 5.03911 13.3377C5.19934 13.2693 5.32884 13.1856 5.42761 13.0869L9.12478 9.38971L9.95078 10.2157L6.25945 13.914C6.14123 14.0315 6.05256 14.1653 5.99345 14.3154C5.93434 14.4663 5.90478 14.6179 5.90478 14.7704C5.90478 15.0302 5.99695 15.2518 6.18128 15.4354C6.36484 15.6197 6.58689 15.7119 6.84745 15.7119C6.99989 15.7119 7.15623 15.6776 7.31645 15.6092C7.47667 15.5408 7.60617 15.4571 7.70495 15.3584L11.6716 11.3975L12.4964 12.2235L8.53678 16.1902C8.43334 16.289 8.34856 16.4185 8.28245 16.5787C8.21556 16.7389 8.18212 16.8953 8.18212 17.0477C8.18212 17.3075 8.27428 17.5292 8.45861 17.7127C8.64217 17.897 8.86423 17.9892 9.12478 17.9892C9.27723 17.9892 9.42889 17.9597 9.57978 17.9005C9.72989 17.8414 9.86406 17.7531 9.98228 17.6357L13.9489 13.6749L14.7738 14.5009L10.8071 18.4675C10.6889 18.5858 10.6002 18.7273 10.5411 18.8922C10.482 19.0579 10.4524 19.2095 10.4524 19.3472C10.4524 19.6225 10.5497 19.8446 10.7441 20.0134C10.9378 20.1821 11.1571 20.2665 11.4021 20.2665M11.3951 21.4332C10.7954 21.4332 10.2821 21.2139 9.85511 20.7752C9.42734 20.3358 9.23989 19.794 9.29278 19.15C8.63167 19.1578 8.08139 18.9603 7.64195 18.5574C7.20173 18.1553 6.99289 17.5937 7.01545 16.8727C6.29445 16.8805 5.72667 16.6744 5.31211 16.2544C4.89678 15.8344 4.70778 15.2814 4.74511 14.5954C4.09645 14.6031 3.55356 14.4204 3.11645 14.047C2.67934 13.6753 2.46078 13.1573 2.46078 12.493C2.46078 12.1936 2.51912 11.8941 2.63578 11.5947C2.75167 11.2945 2.92278 11.0308 3.14911 10.8037L9.01978 4.94004L12.0321 7.95237C12.1309 8.05582 12.253 8.14098 12.3984 8.20787C12.5431 8.27398 12.7064 8.30704 12.8884 8.30704C13.1389 8.30704 13.3598 8.21993 13.5511 8.04571C13.7424 7.87148 13.8381 7.64476 13.8381 7.36554C13.8381 7.18276 13.8051 7.01865 13.7389 6.87321C13.6721 6.72854 13.5873 6.60682 13.4846 6.50804L9.47128 2.49471C9.18195 2.20148 8.88134 1.98643 8.56945 1.84954C8.25834 1.71265 7.91689 1.64421 7.54511 1.64421C7.17878 1.64421 6.84589 1.71265 6.54645 1.84954C6.24778 1.98643 5.95184 2.20148 5.65861 2.49471L2.10728 6.05304C1.85684 6.30193 1.65461 6.59943 1.50061 6.94554C1.34661 7.29165 1.26495 7.64826 1.25562 8.01537C1.24784 8.27904 1.27039 8.53221 1.32328 8.77487C1.37773 9.01832 1.46328 9.24698 1.57995 9.46087L0.695615 10.344C0.499615 10.0321 0.346393 9.67243 0.235948 9.26487C0.124726 8.85654 0.0737818 8.44043 0.0831151 8.01654C0.0924485 7.48687 0.198615 6.97937 0.401615 6.49404C0.605393 6.00793 0.896282 5.57587 1.27428 5.19787L4.80345 1.66871C5.21023 1.26659 5.64073 0.96715 6.09495 0.770373C6.54917 0.57515 7.03995 0.477539 7.56728 0.477539C8.09617 0.477539 8.58345 0.575539 9.02911 0.771539C9.47556 0.967539 9.90023 1.26659 10.3031 1.66871L11.3181 2.68487L12.3354 1.66871C12.7422 1.26659 13.1688 0.96715 13.6153 0.770373C14.0617 0.57515 14.549 0.477539 15.0771 0.477539C15.6052 0.477539 16.096 0.575539 16.5494 0.771539C17.0037 0.967539 17.4318 1.26659 17.8339 1.66871L22.1798 6.01454C22.5827 6.41665 22.893 6.86815 23.1108 7.36904C23.3293 7.87071 23.4386 8.38559 23.4386 8.91371C23.4386 9.44104 23.3297 9.92793 23.1119 10.3744C22.8934 10.8208 22.5827 11.2455 22.1798 11.6484L13.0844 20.7367C12.8426 20.9794 12.5789 21.1559 12.2934 21.2664C12.0088 21.3768 11.7093 21.432 11.3951 21.432" fill="black"/>
</svg>
