<svg viewBox="0 0 24 21" fill="none" xmlns="http://www.w3.org/2000/svg">
<path d="M11.5073 20.1638C11.2219 20.1638 10.9711 20.0665 10.7548 19.8721C10.5386 19.6784 10.4305 19.4241 10.4305 19.1091C10.4305 18.9574 10.4636 18.7902 10.5297 18.6074C10.595 18.4239 10.6938 18.2664 10.826 18.1349L15.1217 13.8381L14.4777 13.1941L10.189 17.4909C10.0568 17.6231 9.90785 17.7219 9.74218 17.7873C9.57574 17.8534 9.40735 17.8864 9.23701 17.8864C8.93679 17.8864 8.68207 17.7818 8.47285 17.5726C8.26363 17.3634 8.1594 17.109 8.16018 16.8096C8.16018 16.6299 8.19674 16.4545 8.26985 16.2834C8.34374 16.1123 8.43668 15.9704 8.54868 15.8576L12.8443 11.5608L12.2073 10.9238L7.91168 15.2148C7.79501 15.3314 7.64996 15.4263 7.47651 15.4994C7.30229 15.5733 7.12768 15.6103 6.95268 15.6103C6.65713 15.6103 6.40396 15.5049 6.19318 15.2941C5.98163 15.0825 5.87585 14.829 5.87585 14.5334C5.87585 14.3623 5.9089 14.1939 5.97501 14.0283C6.04113 13.8618 6.1399 13.7129 6.27135 13.5814L10.2987 9.55409L9.65468 8.91709L5.63435 12.9444C5.52157 13.0564 5.37846 13.1494 5.20501 13.2233C5.03157 13.2964 4.8554 13.3329 4.67651 13.3329C4.36074 13.3329 4.10213 13.2322 3.90068 13.0308C3.69924 12.8293 3.59851 12.5711 3.59851 12.2561C3.59851 12.085 3.63157 11.9166 3.69768 11.7509C3.76379 11.5853 3.86257 11.4363 3.99401 11.3041L9.75735 5.54076L12.2703 8.06076C12.4842 8.27465 12.7257 8.42593 12.9948 8.51459C13.264 8.60326 13.537 8.64759 13.8138 8.64759C14.3762 8.64759 14.846 8.46248 15.2232 8.09226C15.6004 7.72204 15.789 7.24915 15.789 6.67359C15.789 6.40137 15.7365 6.12682 15.6315 5.84993C15.5265 5.57382 15.3628 5.32415 15.1403 5.10093L12.051 2.01159L13.1943 0.86826C13.451 0.61626 13.761 0.418705 14.1242 0.275594C14.4874 0.13326 14.8506 0.0620938 15.2138 0.0620938C15.5996 0.0620938 15.9768 0.13326 16.3455 0.275594C16.7134 0.418705 17.0272 0.620538 17.287 0.881094L22.285 5.88143C22.53 6.12721 22.7241 6.42665 22.8672 6.77976C23.0103 7.13209 23.0818 7.52293 23.0818 7.95226C23.0818 8.34115 23.0091 8.70865 22.8637 9.05476C22.7182 9.40165 22.5254 9.69526 22.285 9.93559L12.4605 19.7671C12.3345 19.8931 12.1867 19.9903 12.0172 20.0588C11.8492 20.128 11.6796 20.1626 11.5085 20.1626M2.64885 11.3671L1.44135 10.1596C1.11079 9.83371 0.861903 9.44209 0.694681 8.98476C0.527459 8.52665 0.443848 8.07943 0.443848 7.64309C0.443848 7.18187 0.518514 6.76382 0.667848 6.38893C0.817181 6.01404 1.00774 5.71032 1.23951 5.47776L5.83268 0.878761C6.0839 0.627538 6.3639 0.428038 6.67268 0.28026C6.9799 0.132482 7.31551 0.0585938 7.67951 0.0585938C8.06996 0.0585938 8.42774 0.128205 8.75285 0.267427C9.07951 0.405871 9.3774 0.609649 9.64651 0.878761L14.5045 5.73559C14.6212 5.85226 14.7161 5.99732 14.7892 6.17076C14.8623 6.34421 14.8988 6.50871 14.8988 6.66426C14.8988 6.97537 14.7973 7.23632 14.5943 7.44709C14.3906 7.65865 14.1331 7.76443 13.822 7.76443C13.647 7.76443 13.4786 7.73254 13.3168 7.66876C13.1558 7.60498 13.0073 7.50504 12.8712 7.36893L9.75268 4.26443L2.64885 11.3671Z" fill="black"/>
</svg>
