<svg width="24" height="24" viewBox="0 0 24 24" fill="none" xmlns="http://www.w3.org/2000/svg">
<path d="M18.6706 12.5051L12.0074 19L5.34419 12.5051C4.90469 12.0842 4.5585 11.5783 4.32743 11.0192C4.09635 10.4602 3.98539 9.8601 4.00154 9.25676C4.01769 8.65343 4.16059 8.05992 4.42125 7.51361C4.68191 6.9673 5.05468 6.48002 5.51609 6.08247C5.97749 5.68491 6.51754 5.38568 7.10222 5.20363C7.6869 5.02158 8.30355 4.96065 8.91333 5.02467C9.52312 5.08868 10.1128 5.27627 10.6453 5.57561C11.1778 5.87496 11.6416 6.27957 12.0074 6.76397C12.3748 6.28309 12.8391 5.88201 13.3712 5.58584C13.9034 5.28968 14.4919 5.1048 15.1 5.04278C15.708 4.98076 16.3226 5.04294 16.9051 5.22541C17.4876 5.40789 18.0256 5.70674 18.4854 6.10326C18.9452 6.49978 19.3169 6.98544 19.5772 7.52983C19.8375 8.07423 19.9808 8.66564 19.9982 9.26706C20.0156 9.86848 19.9067 10.467 19.6782 11.025C19.4498 11.5831 19.1068 12.0888 18.6706 12.5104" stroke="#50565F" stroke-width="1.2" stroke-linecap="round" stroke-linejoin="round"/>
<path d="M12 6.80005L9.2377 9.53305C9.0855 9.6773 9 9.87292 9 10.0769C9 10.2809 9.0855 10.4765 9.2377 10.6207L9.67853 11.0384C10.2387 11.5692 11.148 11.5692 11.7082 11.0384L12.52 10.2692C13.0045 9.81017 13.6615 9.5523 14.3467 9.5523C15.0318 9.5523 15.6889 9.81017 16.1733 10.2692L18 12" stroke="#50565F" stroke-width="1.2" stroke-linecap="round" stroke-linejoin="round"/>
<path d="M12 15L14 17" stroke="#50565F" stroke-width="1.2" stroke-linecap="round" stroke-linejoin="round"/>
<path d="M14 13L16 15" stroke="#50565F" stroke-width="1.2" stroke-linecap="round" stroke-linejoin="round"/>
</svg>
