<svg width="28" height="28" viewBox="0 0 28 28" fill="none" xmlns="http://www.w3.org/2000/svg">
<path d="M14.0002 21.6279C13.6789 21.6279 13.4044 21.514 13.1765 21.2861C12.9486 21.0582 12.8343 20.7832 12.8335 20.4612C12.8335 20.1408 12.9478 19.8662 13.1765 19.6376C13.4052 19.4089 13.6797 19.2946 14.0002 19.2946C14.3214 19.2946 14.5959 19.4089 14.8238 19.6376C15.0517 19.8662 15.1661 20.1408 15.1668 20.4612C15.1668 20.7825 15.0525 21.0574 14.8238 21.2861C14.5952 21.5147 14.3206 21.6287 14.0002 21.6279ZM14.0002 15.1669C13.6789 15.1669 13.4044 15.0526 13.1765 14.8239C12.9486 14.5952 12.8343 14.3207 12.8335 14.0002C12.8335 13.679 12.9478 13.4045 13.1765 13.1766C13.4052 12.9487 13.6797 12.8343 14.0002 12.8336C14.3214 12.8336 14.5959 12.9479 14.8238 13.1766C15.0517 13.4052 15.1661 13.6798 15.1668 14.0002C15.1668 14.3215 15.0525 14.596 14.8238 14.8239C14.5952 15.0518 14.3206 15.1661 14.0002 15.1669ZM14.0002 8.7059C13.6789 8.7059 13.4044 8.59156 13.1765 8.3629C12.9486 8.13423 12.8343 7.85967 12.8335 7.53923C12.8335 7.21801 12.9478 6.94306 13.1765 6.7144C13.4052 6.48573 13.6797 6.37178 14.0002 6.37256C14.3214 6.37256 14.5959 6.48651 14.8238 6.7144C15.0517 6.94229 15.1661 7.21723 15.1668 7.53923C15.1668 7.85967 15.0525 8.13423 14.8238 8.3629C14.5952 8.59156 14.3206 8.7059 14.0002 8.7059Z" fill="black"/>
</svg>
