<svg width="24" height="24" viewBox="0 0 24 24" fill="none" xmlns="http://www.w3.org/2000/svg">
<path d="M14 8.66667C14.7364 8.66667 15.3333 9.26362 15.3333 10M18 10C18 12.2091 16.2091 14 14 14C13.5959 14 13.2058 13.9401 12.838 13.8286L11.3333 15.3333H10V16.6667H8.66667V18H6.66667C6.29848 18 6 17.7015 6 17.3333V15.6095C6 15.4327 6.07024 15.2631 6.19526 15.1381L10.1714 11.162C10.0599 10.7942 10 10.4041 10 10C10 7.79086 11.7909 6 14 6C16.2091 6 18 7.79086 18 10Z" stroke="#50565F" stroke-width="1.2" stroke-linecap="round" stroke-linejoin="round"/>
</svg>
