<svg width="24" height="24" viewBox="0 0 24 24" fill="none" xmlns="http://www.w3.org/2000/svg">
<path d="M9.71887 5.6916L10.6158 4.42276C10.8032 4.15763 11.1077 4 11.4324 4H12.5688C12.8923 4 13.1958 4.15645 13.3834 4.41993L14.2702 5.66524M9.71887 5.6916C9.4546 6.06273 9.01533 6.24459 8.54909 6.21217M9.71887 5.6916C9.45332 6.06184 9.01533 6.2461 8.54909 6.21217M8.54909 6.21217L6.95171 6.11345C6.63391 6.09381 6.32575 6.22669 6.12188 6.47127L5.42083 7.31233C5.19978 7.57753 5.13116 7.93799 5.23931 8.26586L5.69383 9.64378M5.69383 9.64378C5.76158 9.86003 5.77025 10.0917 5.72176 10.3105M5.69383 9.64378C5.76254 9.85965 5.77089 10.0909 5.72144 10.3127M5.72176 10.3105C5.67263 10.5267 5.56731 10.7309 5.41093 10.8962M5.72176 10.3105L5.72144 10.3127M5.41093 10.8962L4.37392 11.9941C4.1408 12.2409 4.04882 12.5891 4.12965 12.9189L4.37072 13.9022C4.45044 14.2274 4.68763 14.4912 5.0026 14.6048L6.43686 15.1222C6.65393 15.2049 6.84145 15.3393 6.98338 15.5086M5.41093 10.8962C5.56827 10.7322 5.67263 10.5287 5.72144 10.3127M6.98338 15.5086C7.12435 15.6784 7.22036 15.8834 7.25761 16.1053M6.98338 15.5086C7.12563 15.6784 7.22196 15.8828 7.25761 16.1053M6.98338 15.5086L6.98114 15.5062C6.97182 15.4951 6.96187 15.4835 6.95224 15.4727M7.25761 16.1053L7.50054 17.5742C7.55483 17.9025 7.76884 18.1822 8.07146 18.3205L9.0896 18.7859C9.37741 18.9174 9.71049 18.9049 9.98768 18.7523L11.3449 18.0048M11.3449 18.0048C11.5469 17.8931 11.7723 17.8371 11.9978 17.8369M11.3449 18.0048C11.4249 17.96 11.5087 17.9243 11.5948 17.8975C11.7255 17.8567 11.8616 17.8366 11.9978 17.8369M11.9978 17.8369C12.115 17.8371 12.2322 17.8524 12.3465 17.8825C12.4528 17.9105 12.5562 17.9514 12.6541 18.0048M11.9978 17.8369C12.2241 17.8366 12.4508 17.8925 12.6541 18.0048M12.6541 18.0048L14.0794 18.7643C14.3577 18.9127 14.6897 18.921 14.9751 18.7868L15.9884 18.3104C16.29 18.1686 16.5012 17.8857 16.5515 17.5562L16.7684 16.1335M16.7684 16.1335C16.804 15.9103 16.8988 15.7039 17.0394 15.5326M16.7684 16.1335C16.8028 15.9098 16.8981 15.7037 17.0394 15.5326M17.0394 15.5326C17.1791 15.3631 17.3644 15.228 17.5802 15.1445M17.0394 15.5326C17.1788 15.3624 17.3634 15.227 17.5802 15.1445M17.5802 15.1445L19.0326 14.5842C19.3418 14.4649 19.5719 14.2001 19.6468 13.8772L19.8792 12.8756C19.9547 12.5503 19.8628 12.2088 19.6344 11.9653L18.5884 10.8505M18.5884 10.8505C18.4292 10.6846 18.3181 10.4864 18.2641 10.2758M18.5884 10.8505C18.5136 10.773 18.4494 10.6883 18.397 10.5985C18.3373 10.4965 18.2927 10.3879 18.2641 10.2758M18.2641 10.2758C18.2111 10.0667 18.2143 9.84512 18.2814 9.63064L18.7311 8.2119C18.8342 7.88641 18.7642 7.53079 18.5453 7.26873L17.8656 6.45486C17.6593 6.20798 17.347 6.07536 17.0261 6.0985L15.4496 6.21217M15.4496 6.21217C15.2178 6.22828 14.9898 6.18481 14.7869 6.09129M15.4496 6.21217C15.2175 6.22921 14.9898 6.18539 14.7869 6.09129M14.7869 6.09129C14.5826 5.99657 14.4035 5.85092 14.2702 5.66524M14.7869 6.09129C14.5823 5.99692 14.4028 5.85166 14.2702 5.66524M5.72144 10.3127L5.72208 10.3095M14.5798 11.508C14.5798 12.9067 13.4019 14.0405 11.9493 14.0405C10.4966 14.0405 9.31878 12.9067 9.31878 11.508C9.31878 10.1092 10.4966 8.9754 11.9493 8.9754C13.4019 8.9754 14.5798 10.1092 14.5798 11.508Z" stroke="#11227B" stroke-width="1.2"/>
</svg>
