<svg width="32" height="32" viewBox="0 0 32 32" fill="none" xmlns="http://www.w3.org/2000/svg">
<path d="M8.30634 28.0002C7.48056 28.0002 6.77834 27.7158 6.19967 27.1469C5.6219 26.5798 5.33301 25.8905 5.33301 25.0789V6.97358C5.33301 6.14691 5.6219 5.44469 6.19967 4.86691C6.77923 4.28913 7.48145 4.00024 8.30634 4.00024H22.153V23.4869H8.30767C7.86145 23.4869 7.47612 23.6389 7.15167 23.9429C6.82812 24.2478 6.66634 24.6242 6.66634 25.0722C6.66634 25.522 6.82812 25.8998 7.15167 26.2056C7.47612 26.5131 7.86145 26.6669 8.30767 26.6669H25.333V6.66691H26.6663V28.0002H8.30634ZM11.1797 22.1536H20.8197V5.33358H11.1797V22.1536ZM9.84634 22.1536V5.33358H8.30634C7.84145 5.33358 7.45167 5.49536 7.13701 5.81891C6.82234 6.14247 6.66545 6.5278 6.66634 6.97491V22.6949C6.90634 22.5429 7.16145 22.4149 7.43167 22.3109C7.7019 22.206 7.9939 22.1536 8.30767 22.1536H9.84634Z" fill="black"/>
</svg>
