<svg width="24" height="24" viewBox="0 0 24 24" fill="none" xmlns="http://www.w3.org/2000/svg">
<path d="M14.0588 8.25V6.625C14.0588 6.19402 13.8853 5.7807 13.5764 5.47595C13.2675 5.1712 12.8486 5 12.4118 5H6.64706C6.21023 5 5.7913 5.1712 5.48241 5.47595C5.17353 5.7807 5 6.19402 5 6.625V16.375C5 16.806 5.17353 17.2193 5.48241 17.524C5.7913 17.8288 6.21023 18 6.64706 18H12.4118C12.8486 18 13.2675 17.8288 13.5764 17.524C13.8853 17.2193 14.0588 16.806 14.0588 16.375V14.75M9.11765 11.5H19M19 11.5L16.5294 9.0625M19 11.5L16.5294 13.9375" stroke="#50565F" stroke-width="1.2" stroke-linecap="square" stroke-linejoin="round"/>
</svg>
