<svg width="24" height="24" viewBox="0 0 24 24" fill="none" xmlns="http://www.w3.org/2000/svg">
<path d="M13.7501 18.2628L8.25008 16.3378L4.62191 17.7403C4.38725 17.8277 4.16939 17.8023 3.96833 17.6642C3.76728 17.5261 3.66675 17.3321 3.66675 17.0821V5.87039C3.66675 5.70722 3.70647 5.5578 3.78591 5.42214C3.86536 5.28647 3.98086 5.19267 4.13241 5.14072L8.25008 3.7373L13.7501 5.6623L17.3782 4.2598C17.6129 4.17242 17.8308 4.18892 18.0318 4.3093C18.2329 4.42969 18.3334 4.60905 18.3334 4.84739V16.2003C18.3334 16.3757 18.2848 16.5279 18.1877 16.6568C18.0911 16.7864 17.9609 16.8774 17.7972 16.93L13.7501 18.2628ZM13.2917 17.1445V6.41947L8.70842 4.81989V15.5449L13.2917 17.1445ZM14.2084 17.1445L17.4167 16.0876V5.22505L14.2084 6.42039V17.1445ZM4.58341 16.7751L7.79175 15.5449V4.81989L4.58341 5.91255V16.7751Z" fill="#3A3D43"/>
</svg>
