<svg width="24" height="24" viewBox="0 0 24 24" fill="none" xmlns="http://www.w3.org/2000/svg">
<path d="M19.5 8.45837H4.5C4.15833 8.45837 3.875 8.17504 3.875 7.83337C3.875 7.49171 4.15833 7.20837 4.5 7.20837H19.5C19.8417 7.20837 20.125 7.49171 20.125 7.83337C20.125 8.17504 19.8417 8.45837 19.5 8.45837Z" fill="#575757"/>
<path d="M19.5 12.625H4.5C4.15833 12.625 3.875 12.3417 3.875 12C3.875 11.6583 4.15833 11.375 4.5 11.375H19.5C19.8417 11.375 20.125 11.6583 20.125 12C20.125 12.3417 19.8417 12.625 19.5 12.625Z" fill="#575757"/>
<path d="M19.5 16.7916H4.5C4.15833 16.7916 3.875 16.5083 3.875 16.1666C3.875 15.825 4.15833 15.5416 4.5 15.5416H19.5C19.8417 15.5416 20.125 15.825 20.125 16.1666C20.125 16.5083 19.8417 16.7916 19.5 16.7916Z" fill="#575757"/>
</svg>
