<svg  viewBox="0 0 29 28" fill="none" xmlns="http://www.w3.org/2000/svg">
<path d="M14.7493 25.1732L11.7428 22.1667H5.41602V3.5H24.0827V22.1667H17.7558L14.7493 25.1732ZM6.58268 20.1075C7.63268 19.0769 8.85302 18.2649 10.2437 17.6715C11.6343 17.0781 13.1362 16.7817 14.7493 16.7825C16.3632 16.7825 17.8655 17.0788 19.2562 17.6715C20.6468 18.2642 21.8668 19.0762 22.916 20.1075V4.66667H6.58268V20.1075ZM14.7493 14.0898C15.7278 14.0898 16.5557 13.7511 17.2332 13.0737C17.9106 12.3962 18.2493 11.5679 18.2493 10.5887C18.2493 9.611 17.9106 8.78344 17.2332 8.106C16.5557 7.42856 15.7278 7.08983 14.7493 7.08983C13.7709 7.08983 12.943 7.42856 12.2655 8.106C11.5881 8.78344 11.2493 9.61139 11.2493 10.5898C11.2493 11.5683 11.5881 12.3962 12.2655 13.0737C12.943 13.7511 13.7709 14.0906 14.7493 14.0898ZM7.61518 21H21.8835V20.7982C20.8576 19.8337 19.7403 19.1178 18.5317 18.6503C17.323 18.1829 16.0622 17.9492 14.7493 17.9492C13.466 17.9492 12.2165 18.179 11.0008 18.6387C9.7844 19.0983 8.65585 19.803 7.61518 20.7527V21ZM14.7493 12.9232C14.1139 12.9232 13.566 12.6933 13.1055 12.2337C12.6458 11.7732 12.416 11.2249 12.416 10.5887C12.416 9.954 12.6458 9.40644 13.1055 8.946C13.566 8.48633 14.1139 8.2565 14.7493 8.2565C15.3848 8.2565 15.9327 8.48633 16.3932 8.946C16.8529 9.40644 17.0827 9.95439 17.0827 10.5898C17.0827 11.2253 16.8529 11.7732 16.3932 12.2337C15.9327 12.6926 15.3848 12.9232 14.7493 12.9232Z" fill="black"/>
</svg>
