<svg width="22" height="22" viewBox="0 0 22 22" fill="none" xmlns="http://www.w3.org/2000/svg">
<path d="M11.9167 18.3676V16.7112H13.574V18.3676H11.9167ZM10.2593 16.7112V12.6568H11.9167V16.7112H10.2593ZM16.7118 13.6083V10.9995H18.3682V13.6083H16.7118ZM15.0544 10.9995V9.34212H16.7118V10.9995H15.0544ZM5.28917 12.6568V10.9995H6.9465V12.6568H5.28917ZM3.63184 10.9995V9.34212H5.28825L5.28917 10.9995H3.63184ZM11 5.28862V3.63037H12.6573V5.28679L11 5.28862ZM4.44217 7.79112H7.79167V4.44162H4.44217V7.79112ZM3.63184 8.60237V3.63129H8.60292V8.60237H3.63184ZM4.44217 17.5573H7.93284V14.2078H4.44217V17.5573ZM3.63184 18.3676V13.3965H8.74317V18.3676H3.63184ZM14.2083 7.79112H17.5578V4.44162H14.2083V7.79112ZM13.3971 8.60237V3.63129H18.3682V8.60237H13.3971ZM15.0544 18.3676V15.2656H13.3971V13.6083H16.7118V16.7112H18.3682V18.3676H15.0544ZM11.9167 12.6568V10.9995H15.0544V12.6568H11.9167ZM8.60292 12.6568V10.9995H6.9465L6.94559 9.34212H11.9167V10.9995H10.2593V12.6568H8.60292ZM9.34267 8.60237V5.2877L11 5.28862V6.94504H12.6573V8.60237H9.34267ZM5.53484 6.69845V5.53429H6.699V6.69845H5.53484ZM5.65859 16.3409V15.1767H6.82275V16.3409H5.65859ZM15.3019 6.69754V5.5352H16.4652V6.69937L15.3019 6.69754Z" fill="white"/>
</svg>
