<svg width="24" height="24" viewBox="0 0 24 24" fill="none" xmlns="http://www.w3.org/2000/svg">
<path d="M6.41683 12.1278C6.10088 12.1278 5.83383 12.019 5.61566 11.8015C5.3975 11.5833 5.28841 11.3163 5.28841 11.0003C5.28841 10.6844 5.3975 10.4173 5.61566 10.1992C5.83383 9.98099 6.10088 9.87191 6.41683 9.87191C6.73277 9.87191 6.99983 9.98099 7.218 10.1992C7.43616 10.4173 7.54525 10.6844 7.54525 11.0003C7.54525 11.3163 7.43616 11.5833 7.218 11.8015C6.99983 12.0197 6.73277 12.1287 6.41683 12.1287M6.41683 15.5837C5.14755 15.5837 4.0665 15.1369 3.17366 14.2435C2.28022 13.3507 1.8335 12.2696 1.8335 11.0003C1.8335 9.73105 2.28022 8.64999 3.17366 7.75716C4.06711 6.86433 5.14816 6.4176 6.41683 6.41699C7.35794 6.41699 8.20677 6.67213 8.96333 7.18241C9.71988 7.69269 10.272 8.35421 10.6197 9.16699H19.0558L20.8892 11.0003L17.9632 13.8915L16.3947 12.7099L14.7374 13.9263L13.1067 12.8337H10.6197C10.2714 13.6354 9.71927 14.2942 8.96333 14.81C8.20738 15.3258 7.35855 15.5837 6.41683 15.5837ZM6.41683 14.667C7.31944 14.667 8.08944 14.3957 8.72683 13.853C9.36422 13.3097 9.77244 12.6644 9.9515 11.917H13.3982L14.709 12.8034L16.4122 11.5824L17.8981 12.7007L19.5994 11.0003L18.6827 10.0837H9.9515C9.77244 9.33627 9.36422 8.69094 8.72683 8.14766C8.08944 7.60499 7.31944 7.33366 6.41683 7.33366C5.4085 7.33366 4.5453 7.69269 3.82725 8.41074C3.10919 9.1288 2.75016 9.99199 2.75016 11.0003C2.75016 12.0087 3.10919 12.8719 3.82725 13.5899C4.5453 14.308 5.4085 14.667 6.41683 14.667Z" fill="#3A3D43"/>
</svg>
