<svg width="24" height="24" viewBox="0 0 24 24" fill="none" xmlns="http://www.w3.org/2000/svg">
<path d="M12 15.125C10.275 15.125 8.875 13.725 8.875 12C8.875 10.275 10.275 8.875 12 8.875C13.725 8.875 15.125 10.275 15.125 12C15.125 13.725 13.725 15.125 12 15.125ZM12 10.125C10.9667 10.125 10.125 10.9667 10.125 12C10.125 13.0333 10.9667 13.875 12 13.875C13.0333 13.875 13.875 13.0333 13.875 12C13.875 10.9667 13.0333 10.125 12 10.125Z" fill="#575757"/>
<path d="M14.675 20.4916C14.5 20.4916 14.325 20.4666 14.15 20.425C13.6333 20.2833 13.2 19.9583 12.925 19.5L12.825 19.3333C12.3333 18.4833 11.6583 18.4833 11.1667 19.3333L11.075 19.4916C10.8 19.9583 10.3667 20.2916 9.84999 20.425C9.32499 20.5666 8.78332 20.4916 8.32499 20.2166L6.89166 19.3916C6.38332 19.1 6.01666 18.625 5.85832 18.05C5.70832 17.475 5.78332 16.8833 6.07499 16.375C6.31666 15.95 6.38332 15.5666 6.24166 15.325C6.09999 15.0833 5.74166 14.9416 5.24999 14.9416C4.03332 14.9416 3.04166 13.95 3.04166 12.7333V11.2666C3.04166 10.05 4.03332 9.05829 5.24999 9.05829C5.74166 9.05829 6.09999 8.91662 6.24166 8.67495C6.38332 8.43329 6.32499 8.04995 6.07499 7.62495C5.78332 7.11662 5.70832 6.51662 5.85832 5.94995C6.00832 5.37495 6.37499 4.89995 6.89166 4.60829L8.33332 3.78329C9.27499 3.22495 10.5167 3.54995 11.0833 4.50829L11.1833 4.67495C11.675 5.52495 12.35 5.52495 12.8417 4.67495L12.9333 4.51662C13.5 3.54995 14.7417 3.22495 15.6917 3.79162L17.125 4.61662C17.6333 4.90829 18 5.38329 18.1583 5.95829C18.3083 6.53329 18.2333 7.12495 17.9417 7.63329C17.7 8.05829 17.6333 8.44162 17.775 8.68329C17.9167 8.92495 18.275 9.06662 18.7667 9.06662C19.9833 9.06662 20.975 10.0583 20.975 11.275V12.7416C20.975 13.9583 19.9833 14.95 18.7667 14.95C18.275 14.95 17.9167 15.0916 17.775 15.3333C17.6333 15.575 17.6917 15.9583 17.9417 16.3833C18.2333 16.8916 18.3167 17.4916 18.1583 18.0583C18.0083 18.6333 17.6417 19.1083 17.125 19.4L15.6833 20.225C15.3667 20.4 15.025 20.4916 14.675 20.4916ZM12 17.4083C12.7417 17.4083 13.4333 17.875 13.9083 18.7L14 18.8583C14.1 19.0333 14.2667 19.1583 14.4667 19.2083C14.6667 19.2583 14.8667 19.2333 15.0333 19.1333L16.475 18.3C16.6917 18.175 16.8583 17.9666 16.925 17.7166C16.9917 17.4666 16.9583 17.2083 16.8333 16.9916C16.3583 16.175 16.3 15.3333 16.6667 14.6916C17.0333 14.05 17.7917 13.6833 18.7417 13.6833C19.275 13.6833 19.7 13.2583 19.7 12.725V11.2583C19.7 10.7333 19.275 10.3 18.7417 10.3C17.7917 10.3 17.0333 9.93329 16.6667 9.29162C16.3 8.64995 16.3583 7.80829 16.8333 6.99162C16.9583 6.77495 16.9917 6.51662 16.925 6.26662C16.8583 6.01662 16.7 5.81662 16.4833 5.68329L15.0417 4.85829C14.6833 4.64162 14.2083 4.76662 13.9917 5.13329L13.9 5.29162C13.425 6.11662 12.7333 6.58329 11.9917 6.58329C11.25 6.58329 10.5583 6.11662 10.0833 5.29162L9.99166 5.12495C9.78332 4.77495 9.31666 4.64995 8.95832 4.85829L7.51666 5.69162C7.29999 5.81662 7.13332 6.02495 7.06666 6.27495C6.99999 6.52495 7.03332 6.78329 7.15832 6.99995C7.63332 7.81662 7.69166 8.65829 7.32499 9.29995C6.95832 9.94162 6.19999 10.3083 5.24999 10.3083C4.71666 10.3083 4.29166 10.7333 4.29166 11.2666V12.7333C4.29166 13.2583 4.71666 13.6916 5.24999 13.6916C6.19999 13.6916 6.95832 14.0583 7.32499 14.7C7.69166 15.3416 7.63332 16.1833 7.15832 17C7.03332 17.2166 6.99999 17.475 7.06666 17.725C7.13332 17.975 7.29166 18.175 7.50832 18.3083L8.94999 19.1333C9.12499 19.2416 9.33332 19.2666 9.52499 19.2166C9.72499 19.1666 9.89166 19.0333 9.99999 18.8583L10.0917 18.7C10.5667 17.8833 11.2583 17.4083 12 17.4083Z" fill="#575757"/>
</svg>
