<svg width="32" height="32" viewBox="0 0 32 32" fill="none" xmlns="http://www.w3.org/2000/svg">
<path d="M16 23.5891C17.6409 23.5891 19.2142 23.286 20.72 22.6798C22.2267 22.0726 23.5764 21.2238 24.7693 20.1331L23.9333 19.2971C23.7227 19.5078 23.4796 19.7158 23.204 19.9211C22.9284 20.1273 22.6316 20.3193 22.3133 20.4971L20.872 17.9491V14.7691H22.4613V13.7424H14.944L12.6107 9.74242H9.33333L10.0507 10.2824L8.05067 12.6158L8.80533 13.4358L11.1787 11.8971V17.8971L9.68667 20.4971C9.31778 20.2678 9.008 20.0633 8.75733 19.8838C8.50756 19.7033 8.27733 19.5078 8.06667 19.2971L7.23067 20.1331C8.42356 21.2238 9.77333 22.0726 11.28 22.6798C12.7858 23.286 14.3591 23.5891 16 23.5891ZM16 22.4104C15.1556 22.4104 14.292 22.3184 13.4093 22.1344C12.5258 21.9504 11.6236 21.6184 10.7027 21.1384L12.196 18.4864C12.876 18.7433 13.5258 18.9344 14.1453 19.0598C14.7649 19.186 15.3831 19.2491 16 19.2491C16.6222 19.2491 17.2418 19.186 17.8587 19.0598C18.4756 18.9335 19.1244 18.7424 19.8053 18.4864L21.2987 21.1384C20.3769 21.5918 19.4747 21.9171 18.592 22.1144C17.7084 22.3118 16.8444 22.4104 16 22.4104ZM4 27.9998V3.99976H28V27.9998H4ZM5.33333 26.6664H26.6667V5.33309H5.33333V26.6664Z" fill="black"/>
</svg>
