<svg width="24" height="24" viewBox="0 0 24 24" fill="none" xmlns="http://www.w3.org/2000/svg">
<path fill-rule="evenodd" clip-rule="evenodd" d="M16.6119 5.10218C17.2826 4.98305 17.9245 4.95684 18.4457 5.08408C18.5629 5.11223 18.6696 5.17301 18.7537 5.25941C18.8368 5.34482 18.8942 5.45177 18.9197 5.5681C19.042 6.10515 19.0166 6.75307 18.8972 7.4294C18.7763 8.11432 18.5529 8.86219 18.2506 9.61291C17.6481 11.1089 16.7129 12.6629 15.586 13.7848C15.2547 14.1183 14.8998 14.4272 14.524 14.709C14.5486 15.323 14.4786 15.9583 14.2285 16.5326L14.2283 16.5332C13.8231 17.4606 13.0932 18.0429 12.3901 18.4045C11.6891 18.7651 10.9845 18.9227 10.5664 18.99C10.4481 19.0091 10.3271 19.0008 10.2126 18.9656C10.098 18.9304 9.99315 18.8694 9.90597 18.7872C9.81879 18.705 9.75167 18.6038 9.70979 18.4915C9.66791 18.3792 9.65239 18.2588 9.66444 18.1395C9.66458 18.1381 9.66473 18.1367 9.66489 18.1352L9.88515 16.1268C9.86284 16.1246 9.84055 16.1222 9.81826 16.1198C9.57284 16.0944 9.34375 15.9848 9.17 15.8094C9.1696 15.809 9.1692 15.8086 9.1688 15.8082L8.19195 14.8306C8.19155 14.8302 8.19115 14.8298 8.19074 14.8294C8.0156 14.6556 7.90602 14.4265 7.88062 14.181C7.87802 14.1575 7.87555 14.1341 7.87322 14.1106L5.86449 14.3313L5.86243 14.3315L5.86088 14.3317C5.74155 14.3439 5.62101 14.3285 5.5086 14.2866C5.39619 14.2447 5.29493 14.1774 5.21267 14.0901C5.13041 14.0027 5.06935 13.8976 5.03423 13.7828C4.99911 13.668 4.99088 13.5467 5.01016 13.4282L5.01031 13.4273C5.07897 13.0102 5.23721 12.3061 5.59803 11.605C5.95977 10.902 6.54145 10.172 7.46747 9.76453L7.4688 9.76395C8.04289 9.51331 8.68117 9.44338 9.29853 9.47035C9.58012 9.0956 9.88851 8.74162 10.2213 8.41123C11.3456 7.28714 12.922 6.35172 14.4266 5.74916C15.1818 5.44673 15.9316 5.223 16.6119 5.10218ZM14.7982 6.67832C13.3831 7.245 11.9323 8.11499 10.9275 9.11979L10.9262 9.12112C10.5674 9.47731 10.2401 9.86407 9.94823 10.277C9.84526 10.4227 9.67256 10.5025 9.49497 10.4864C8.88633 10.4313 8.32329 10.483 7.86938 10.6809C7.21788 10.9678 6.78127 11.4915 6.48708 12.0632C6.26045 12.5036 6.12803 12.9546 6.05183 13.3039L8.28887 13.0581C8.42934 13.0427 8.56977 13.0875 8.67544 13.1814C8.7811 13.2753 8.84213 13.4095 8.84343 13.551C8.84502 13.7252 8.85548 13.8993 8.87475 14.0725C8.87494 14.0742 8.87513 14.076 8.8753 14.0777C8.87687 14.0933 8.88381 14.1078 8.89492 14.1188L8.897 14.1209L9.87796 15.1026L9.88 15.1046C9.89099 15.1158 9.90553 15.1227 9.92109 15.1243C9.92296 15.1245 9.92483 15.1247 9.92671 15.1249C10.0987 15.1441 10.2716 15.1545 10.4446 15.1562C10.5859 15.1576 10.7199 15.2187 10.8137 15.3244C10.9075 15.4302 10.9522 15.5706 10.9368 15.7112L10.6914 17.9484C11.0404 17.8732 11.4922 17.7412 11.933 17.5144C12.5046 17.2204 13.0273 16.7838 13.3118 16.1326C13.5101 15.6771 13.5617 15.1161 13.5095 14.5089C13.4942 14.3315 13.5742 14.1594 13.7196 14.0569C14.1334 13.7651 14.5209 13.4377 14.8777 13.0784L14.8798 13.0763C15.8893 12.0716 16.7581 10.6416 17.323 9.23877C17.6045 8.53987 17.8058 7.85945 17.9125 7.25529C17.9989 6.76557 18.0194 6.34689 17.9823 6.01719C17.672 5.98217 17.2679 6.00208 16.7866 6.08757C16.1863 6.19419 15.503 6.39607 14.7982 6.67832ZM10.4074 18.0019C10.4073 18.0019 10.4071 18.002 10.4069 18.002L10.4073 18.0019C10.4074 18.0019 10.4074 18.0019 10.4074 18.0019ZM14.2764 8.89665C14.1114 8.89665 13.95 8.94563 13.8128 9.03739C13.6756 9.12916 13.5686 9.25958 13.5055 9.41218C13.4424 9.56477 13.4258 9.73268 13.4581 9.89466C13.4903 10.0566 13.5697 10.2054 13.6865 10.3222L13.3328 10.6762L13.6869 10.3226C13.7642 10.4002 13.8561 10.4618 13.9573 10.5038C14.0584 10.5458 14.1669 10.5674 14.2764 10.5674C14.3859 10.5674 14.4944 10.5458 14.5955 10.5038C14.6967 10.4618 14.7886 10.4002 14.8659 10.3226L14.8663 10.3222C14.9831 10.2054 15.0625 10.0566 15.0948 9.89466C15.127 9.73268 15.1104 9.56477 15.0473 9.41218C14.9842 9.25958 14.8772 9.12916 14.74 9.03739C14.6028 8.94563 14.4414 8.89665 14.2764 8.89665ZM12.9793 11.0298C12.7228 10.7731 12.5481 10.446 12.4773 10.09C12.4064 9.73387 12.4427 9.36472 12.5816 9.02924C12.7204 8.69377 12.9555 8.40703 13.2572 8.20528C13.5589 8.00354 13.9136 7.89586 14.2764 7.89586C14.6392 7.89586 14.9939 8.00354 15.2956 8.20528C15.5973 8.40703 15.8324 8.69377 15.9712 9.02924C16.1101 9.36472 16.1464 9.73387 16.0755 10.09C16.0048 10.4459 15.8302 10.7729 15.5738 11.0295C15.4036 11.2003 15.2013 11.3357 14.9787 11.4282C14.7561 11.5206 14.5174 11.5682 14.2764 11.5682C14.0354 11.5682 13.7967 11.5206 13.5741 11.4282C13.3516 11.3358 13.1495 11.2004 12.9793 11.0298Z" fill="#11227B"/>
<path fill-rule="evenodd" clip-rule="evenodd" d="M8.42249 14.4391C8.45614 14.7132 8.26123 14.9627 7.98715 14.9963C7.78648 15.0209 7.59978 15.1118 7.45662 15.2546C7.40859 15.303 7.33105 15.4359 7.2545 15.6865C7.18278 15.9213 7.12908 16.2006 7.09001 16.4776C7.06564 16.6505 7.04763 16.8175 7.03439 16.9656C7.18258 16.9524 7.3498 16.9343 7.52273 16.9099C7.79987 16.8708 8.07907 16.8171 8.31373 16.7453C8.56482 16.6685 8.69712 16.5908 8.74475 16.5431L8.7456 16.5423C8.88863 16.3999 8.97949 16.2134 9.00352 16.013C9.0364 15.7388 9.28531 15.5432 9.55949 15.5761C9.83366 15.609 10.0293 15.8579 9.99639 16.1321C9.94561 16.5555 9.75366 16.9496 9.45151 17.2506C9.22369 17.4782 8.89375 17.6136 8.60622 17.7015C8.30203 17.7946 7.96606 17.8573 7.66246 17.9001C7.35658 17.9433 7.07071 17.9681 6.86211 17.9821C6.75746 17.9891 6.67141 17.9935 6.61096 17.9962C6.58072 17.9975 6.55684 17.9984 6.54019 17.999C6.53186 17.9993 6.52534 17.9995 6.52073 17.9996L6.51526 17.9998L6.51289 17.9998C6.51281 17.9998 6.51273 17.9998 6.49999 17.5C6.00016 17.4873 6.00016 17.4872 6.00017 17.4871L6.00023 17.4847L6.00039 17.4793C6.00052 17.4747 6.00073 17.4681 6.00101 17.4598C6.00158 17.4432 6.00247 17.4193 6.0038 17.3891C6.00645 17.3287 6.01085 17.2427 6.01789 17.1381C6.03192 16.9296 6.0567 16.6438 6.09982 16.338C6.14262 16.0345 6.20521 15.6986 6.29813 15.3944C6.38606 15.1065 6.52135 14.7764 6.74865 14.5483L6.74949 14.5475C7.05044 14.247 7.44317 14.0556 7.86531 14.0038C8.13939 13.9701 8.38885 14.165 8.42249 14.4391ZM6.49999 17.5L6.00016 17.4873C5.99667 17.6242 6.04955 17.7567 6.14644 17.8536C6.24334 17.9504 6.37575 18.0033 6.51273 17.9998L6.49999 17.5Z" fill="#11227B"/>
</svg>
