<svg width="24" height="24" viewBox="0 0 24 24" fill="none" xmlns="http://www.w3.org/2000/svg">
<path d="M11 16.2172C12.1281 16.2172 13.2098 16.0088 14.245 15.592C15.2808 15.1746 16.2088 14.591 17.0289 13.8412L16.4542 13.2664C16.3093 13.4113 16.1422 13.5543 15.9528 13.6954C15.7633 13.8372 15.5592 13.9692 15.3404 14.0914L14.3495 12.3397V10.1534H15.4422V9.4476H10.274L8.66983 6.6976H6.41667L6.90983 7.06885L5.53483 8.67301L6.05367 9.23676L7.68533 8.17893V12.3039L6.65958 14.0914C6.40597 13.9338 6.193 13.7932 6.02067 13.6698C5.84894 13.5457 5.69067 13.4113 5.54583 13.2664L4.97108 13.8412C5.79119 14.591 6.71917 15.1746 7.755 15.592C8.79022 16.0088 9.87189 16.2172 11 16.2172ZM11 15.4068C10.4194 15.4068 9.82575 15.3436 9.21892 15.2171C8.61147 15.0906 7.99119 14.8623 7.35808 14.5323L8.38475 12.7091C8.85225 12.8857 9.29897 13.0171 9.72492 13.1033C10.1509 13.19 10.5759 13.2334 11 13.2334C11.4278 13.2334 11.8537 13.19 12.2778 13.1033C12.7019 13.0165 13.1481 12.8851 13.6162 12.7091L14.6428 14.5323C14.0091 14.844 13.3888 15.0677 12.782 15.2033C12.1746 15.339 11.5806 15.4068 11 15.4068ZM2.75 19.2495V2.74951H19.25V19.2495H2.75ZM3.66667 18.3328H18.3333V3.66618H3.66667V18.3328Z" fill="#3A3D43"/>
</svg>
