<svg width="32" height="32" viewBox="0 0 32 32" fill="none" xmlns="http://www.w3.org/2000/svg">
<path d="M5.33315 23.5334C7.06648 23.0222 8.82781 22.6391 10.6171 22.384C12.4056 22.1289 14.1998 22.0014 15.9998 22.0014C17.7998 22.0014 19.5945 22.1289 21.3838 22.384C23.1723 22.6391 24.9331 23.0222 26.6665 23.5334V8.52536C24.9331 9.03647 23.1718 9.4098 21.3825 9.64536C19.5949 9.8818 17.8007 10 15.9998 10C14.1989 10 12.4043 9.88225 10.6158 9.64669C8.82737 9.41025 7.06648 9.03692 5.33315 8.52669V23.5334ZM4.00781 25.3334V6.71069C5.7767 7.28314 7.61848 7.76092 9.53315 8.14403C11.4478 8.52625 13.606 8.71736 16.0078 8.71736C18.4096 8.71736 20.5678 8.52625 22.4825 8.14403C24.3963 7.76092 26.238 7.28314 28.0078 6.71069V25.3334C26.2389 24.7609 24.3971 24.2929 22.4825 23.9294C20.5678 23.5658 18.4096 23.384 16.0078 23.384C13.606 23.384 11.4478 23.5662 9.53315 23.9307C7.61848 24.2925 5.7767 24.76 4.00781 25.3334ZM8.66648 19.816C9.89315 19.6889 11.1154 19.5938 12.3331 19.5307C13.5509 19.4676 14.7731 19.436 15.9998 19.436C17.2265 19.436 18.4487 19.4676 19.6665 19.5307C20.8843 19.5938 22.1065 19.6889 23.3331 19.816L18.6665 14.2054L15.0971 18.456L12.4305 15.256L8.66648 19.816Z" fill="black"/>
</svg>
