<svg width="28" height="28" viewBox="0 0 28 28" fill="none" xmlns="http://www.w3.org/2000/svg">
<path d="M14.0002 14.8262L7.87985 20.9465C7.77097 21.0554 7.63719 21.1137 7.47852 21.1215C7.31985 21.1293 7.1783 21.071 7.05385 20.9465C6.92941 20.8221 6.86719 20.6844 6.86719 20.5335C6.86719 20.3826 6.92941 20.245 7.05385 20.1205L13.1742 14.0002L7.05385 7.87985C6.94497 7.77097 6.88663 7.63719 6.87885 7.47852C6.87108 7.31985 6.92941 7.1783 7.05385 7.05385C7.1783 6.92941 7.31597 6.86719 7.46685 6.86719C7.61774 6.86719 7.75541 6.92941 7.87985 7.05385L14.0002 13.1742L20.1205 7.05385C20.2294 6.94497 20.3632 6.88663 20.5219 6.87885C20.6805 6.87108 20.8221 6.92941 20.9465 7.05385C21.071 7.1783 21.1332 7.31597 21.1332 7.46685C21.1332 7.61774 21.071 7.75541 20.9465 7.87985L14.8262 14.0002L20.9465 20.1205C21.0554 20.2294 21.1137 20.3632 21.1215 20.5219C21.1293 20.6805 21.071 20.8221 20.9465 20.9465C20.8221 21.071 20.6844 21.1332 20.5335 21.1332C20.3826 21.1332 20.245 21.071 20.1205 20.9465L14.0002 14.8262Z" fill="black"/>
</svg>
