<svg width="24" height="24" viewBox="0 0 24 24" fill="none" xmlns="http://www.w3.org/2000/svg">
<path d="M11.9998 11.1328C12.2298 11.1328 12.4503 11.2242 12.6129 11.3868C12.7755 11.5494 12.8668 11.7699 12.8668 11.9998C12.8668 12.2298 12.7755 12.4503 12.6129 12.6129C12.4503 12.7755 12.2298 12.8668 11.9998 12.8668C11.7699 12.8668 11.5494 12.7755 11.3868 12.6129C11.2242 12.4503 11.1328 12.2298 11.1328 11.9998C11.1328 11.7699 11.2242 11.5494 11.3868 11.3868C11.5494 11.2242 11.7699 11.1328 11.9998 11.1328ZM5.2546 5.2546C6.49441 4.01479 9.1821 4.56967 11.9998 6.41638C14.8176 4.56967 17.5053 4.01479 18.7451 5.2546C19.9849 6.49441 19.43 9.1821 17.5833 11.9998C19.43 14.8176 19.9849 17.5053 18.7451 18.7451C17.5053 19.9849 14.8176 19.43 11.9998 17.5833C9.1821 19.43 6.49441 19.9849 5.2546 18.7451C4.01479 17.5053 4.56967 14.8176 6.41638 11.9998C4.56967 9.1821 4.01479 6.49441 5.2546 5.2546ZM15.069 8.93067C15.5979 9.46821 16.0834 10.0144 16.5342 10.5606C17.7307 8.71392 18.1642 7.12731 17.514 6.48574C16.8724 5.83549 15.2858 6.26899 13.4391 7.46544C13.9853 7.91628 14.5315 8.4018 15.069 8.93067ZM8.93067 15.069C8.4018 14.5315 7.91628 13.9853 7.46544 13.4391C6.26899 15.2858 5.83549 16.8724 6.48574 17.514C7.12731 18.1642 8.71392 17.7307 10.5606 16.5342C10.0144 16.0834 9.46821 15.5979 8.93067 15.069ZM6.48574 6.48574C5.83549 7.12731 6.26899 8.71392 7.46544 10.5606C7.91628 10.0144 8.4018 9.46821 8.93067 8.93067C9.46821 8.4018 10.0144 7.91628 10.5606 7.46544C8.71392 6.26899 7.12731 5.83549 6.48574 6.48574ZM10.1618 13.8379C10.7687 14.4448 11.3929 14.9997 11.9998 15.4938C12.6067 14.9997 13.231 14.4448 13.8379 13.8379C14.4448 13.231 14.9997 12.6067 15.4938 11.9998C14.9997 11.3929 14.4448 10.7687 13.8379 10.1618C13.231 9.55491 12.6067 9.00003 11.9998 8.50584C11.3929 9.00003 10.7687 9.55491 10.1618 10.1618C9.55491 10.7687 9.00003 11.3929 8.50584 11.9998C9.00003 12.6067 9.55491 13.231 10.1618 13.8379ZM17.514 17.514C18.1642 16.8724 17.7307 15.2858 16.5342 13.4391C16.0834 13.9853 15.5979 14.5315 15.069 15.069C14.5315 15.5979 13.9853 16.0834 13.4391 16.5342C15.2858 17.7307 16.8724 18.1642 17.514 17.514Z" fill="black"/>
</svg>
