<svg width="24" height="24" viewBox="0 0 24 24" fill="none" xmlns="http://www.w3.org/2000/svg">
<path fill-rule="evenodd" clip-rule="evenodd" d="M12 3C12.2046 3 12.4008 3.08128 12.5455 3.22595L15.4255 6.10595C15.7267 6.40721 15.7267 6.89565 15.4255 7.19691L12.5455 10.0769C12.4008 10.2216 12.2046 10.3029 12 10.3029C11.7954 10.3029 11.5992 10.2216 11.4545 10.0769L8.57452 7.19691C8.27326 6.89565 8.27326 6.40721 8.57452 6.10595L11.4545 3.22595C11.5992 3.08128 11.7954 3 12 3ZM10.211 6.65143L12 8.44046L13.789 6.65143L12 4.86239L10.211 6.65143ZM6.10595 8.57452C6.40721 8.27326 6.89565 8.27326 7.19691 8.57452L10.0769 11.4545C10.2216 11.5992 10.3029 11.7954 10.3029 12C10.3029 12.2046 10.2216 12.4008 10.0769 12.5455L7.19691 15.4255C6.89565 15.7267 6.40721 15.7267 6.10595 15.4255L3.22595 12.5455C3.08128 12.4008 3 12.2046 3 12C3 11.7954 3.08128 11.5992 3.22595 11.4545L6.10595 8.57452ZM4.86239 12L6.65143 13.789L8.44046 12L6.65143 10.211L4.86239 12ZM16.8031 8.98595C17.1044 8.68469 17.5928 8.68469 17.8941 8.98595L20.7741 11.8659C21.0753 12.1672 21.0753 12.6557 20.7741 12.9569L17.8941 15.8369C17.7494 15.9816 17.5532 16.0629 17.3486 16.0629C17.144 16.0629 16.9478 15.9816 16.8031 15.8369L13.9231 12.9569C13.7784 12.8122 13.6971 12.616 13.6971 12.4114C13.6971 12.2068 13.7784 12.0106 13.9231 11.8659L16.8031 8.98595ZM15.5595 12.4114L17.3486 14.2005L19.1376 12.4114L17.3486 10.6224L15.5595 12.4114ZM12 13.6971C12.2046 13.6971 12.4008 13.7784 12.5455 13.9231L15.4255 16.8031C15.7267 17.1044 15.7267 17.5928 15.4255 17.8941L12.5455 20.7741C12.2442 21.0753 11.7558 21.0753 11.4545 20.7741L8.57452 17.8941C8.27326 17.5928 8.27326 17.1044 8.57452 16.8031L11.4545 13.9231C11.5992 13.7784 11.7954 13.6971 12 13.6971ZM10.211 17.3486L12 19.1376L13.789 17.3486L12 15.5595L10.211 17.3486Z" fill="black"/>
</svg>
