<svg width="24" height="24" viewBox="0 0 24 24" fill="none" xmlns="http://www.w3.org/2000/svg">
<path fill-rule="evenodd" clip-rule="evenodd" d="M6.26589 10.3014L11.5175 5.80081C11.6526 5.68727 11.8235 5.625 12 5.625C12.1765 5.625 12.3474 5.68727 12.4825 5.80081L17.7302 10.2981L17.7341 10.3014C17.8175 10.3719 17.8844 10.4596 17.9303 10.5586C17.9762 10.6575 18 10.7655 18 10.8746V17.6246C18 17.8235 17.921 18.0143 17.7803 18.1549C17.6397 18.2956 17.4489 18.3746 17.25 18.3746H15V13.1246C15 12.7268 14.842 12.3452 14.5607 12.0639C14.2794 11.7826 13.8978 11.6246 13.5 11.6246H10.5C10.1022 11.6246 9.72064 11.7826 9.43934 12.0639C9.15804 12.3452 9 12.7268 9 13.1246V18.3746H6.75C6.55109 18.3746 6.36032 18.2956 6.21967 18.1549C6.07902 18.0143 6 17.8235 6 17.6246V10.8744C5.99997 10.7653 6.02375 10.6575 6.06967 10.5586C6.11559 10.4596 6.18256 10.3719 6.26589 10.3014ZM10.5 18.3746H13.5V13.1246H10.5V18.3746ZM12 4.125C11.4683 4.125 10.9537 4.31331 10.5476 4.65654L5.29544 9.15764C5.04648 9.3686 4.84637 9.63119 4.70901 9.92722C4.57128 10.2241 4.49995 10.5476 4.5 10.8748V17.6246C4.5 18.2213 4.73705 18.7936 5.15901 19.2156C5.58097 19.6376 6.15326 19.8746 6.75 19.8746H17.25C17.8467 19.8746 18.419 19.6376 18.841 19.2156C19.2629 18.7936 19.5 18.2213 19.5 17.6246V10.8746C19.5001 10.5474 19.4287 10.2241 19.291 9.92722C19.1536 9.63119 18.9535 9.36859 18.7045 9.15763L13.4563 4.65986L13.4524 4.65654C13.0463 4.31331 12.5317 4.125 12 4.125Z" fill="black"/>
</svg>
