<svg width="24" height="24" viewBox="0 0 24 24" fill="none" xmlns="http://www.w3.org/2000/svg">
<path d="M15.5936 9.81L15.3753 9.4245C15.2103 9.13275 15.1278 8.98725 14.9868 8.9295C14.8466 8.871 14.6876 8.91675 14.3703 9.009L13.8303 9.1635C13.6274 9.21077 13.4142 9.18362 13.2296 9.087L13.0803 9C12.9208 8.89538 12.7987 8.74279 12.7316 8.56425L12.5838 8.11575C12.4871 7.81875 12.4383 7.67025 12.3228 7.58475C12.2073 7.49925 12.0536 7.5 11.7476 7.5H11.2541C10.9466 7.5 10.7936 7.5 10.6781 7.58475C10.5626 7.67025 10.5138 7.81875 10.4171 8.11575L10.2693 8.56425C10.202 8.74251 10.0799 8.89482 9.92056 8.99925L9.77131 9.087C9.58606 9.1845 9.37381 9.21075 9.17056 9.1635L8.63056 9.009C8.31331 8.91675 8.15431 8.871 8.01406 8.9295C7.87306 8.98725 7.79056 9.13275 7.62556 9.4245L7.40731 9.81C7.25281 10.083 7.17481 10.2202 7.18981 10.365C7.20481 10.5105 7.30906 10.6275 7.51606 10.8622L7.97206 11.3812C8.08381 11.5245 8.16256 11.775 8.16256 12C8.16256 12.225 8.08381 12.4747 7.97206 12.6187L7.51606 13.1377C7.30906 13.3717 7.20481 13.4887 7.18981 13.6342C7.17481 13.7797 7.25281 13.917 7.40731 14.1892L7.62556 14.5755C7.79056 14.8665 7.87306 15.0127 8.01406 15.0705C8.15431 15.129 8.31331 15.0832 8.63056 14.991L9.17056 14.8365C9.37351 14.7892 9.58668 14.8164 9.77131 14.913L9.92056 15C10.0796 15.1035 10.2011 15.2565 10.2693 15.4357L10.4171 15.885C10.5138 16.182 10.5626 16.3297 10.6781 16.4152C10.7936 16.5007 10.9473 16.5 11.2541 16.5H11.7476C12.0551 16.5 12.2081 16.5 12.3236 16.4152C12.4391 16.3297 12.4878 16.182 12.5846 15.885L12.7323 15.4357C12.7998 15.2557 12.9221 15.1035 13.0811 15.0007L13.2303 14.913C13.4156 14.8155 13.6278 14.7892 13.8311 14.8365L14.3711 14.991C14.6883 15.0832 14.8473 15.129 14.9876 15.0705C15.1286 15.0127 15.2111 14.8665 15.3761 14.5755L15.5943 14.19C15.7488 13.917 15.8268 13.7797 15.8118 13.635C15.7968 13.4887 15.6926 13.3725 15.4856 13.1377L15.0296 12.6187C14.9178 12.4755 14.8391 12.225 14.8391 12C14.8391 11.775 14.9178 11.5245 15.0296 11.3812L15.4856 10.8622C15.6926 10.6282 15.7968 10.5105 15.8111 10.3657C15.8253 10.221 15.7488 10.083 15.5943 9.81075" stroke="black" stroke-width="1.5" stroke-linecap="round" stroke-linejoin="round"/>
<path d="M11.5 13.3125C12.2249 13.3125 12.8125 12.7249 12.8125 12C12.8125 11.2751 12.2249 10.6875 11.5 10.6875C10.7751 10.6875 10.1875 11.2751 10.1875 12C10.1875 12.7249 10.7751 13.3125 11.5 13.3125Z" stroke="black" stroke-width="1.5" stroke-linecap="round" stroke-linejoin="round"/>
<path d="M16.75 4.50001V6.64425C15.3494 5.26788 13.4637 4.49768 11.5 4.50001C7.35775 4.50001 4 7.85775 4 12C3.99933 13.0323 4.21176 14.0536 4.624 15M6.25 19.5V17.3558C7.65056 18.7321 9.53634 19.5023 11.5 19.5C15.6422 19.5 19 16.1423 19 12C19.0007 10.9677 18.7882 9.9464 18.376 9" stroke="black" stroke-width="1.5" stroke-linecap="round" stroke-linejoin="round"/>
</svg>
