<svg width="24" height="24" viewBox="0 0 24 24" fill="none" xmlns="http://www.w3.org/2000/svg">
<path fill-rule="evenodd" clip-rule="evenodd" d="M8.39987 5.85535C9.3546 4.90062 10.6495 4.36426 11.9997 4.36426C13.3499 4.36426 14.6448 4.90062 15.5995 5.85535C16.5542 6.81008 17.0906 8.10497 17.0906 9.45516C17.0906 9.61592 17.083 9.7759 17.068 9.93462C17.6029 10.1851 18.0907 10.5269 18.5092 10.9454C18.9819 11.4182 19.3569 11.9794 19.6128 12.597C19.8686 13.2147 20.0003 13.8767 20.0003 14.5452C20.0003 15.2138 19.8686 15.8758 19.6128 16.4934C19.3569 17.1111 18.9819 17.6723 18.5092 18.145C18.0365 18.6178 17.4752 18.9928 16.8576 19.2486C16.2399 19.5045 15.5779 19.6361 14.9094 19.6361C13.862 19.6361 12.848 19.3134 12.0001 18.723C11.7003 18.9318 11.3782 19.1081 11.0391 19.2486C10.4214 19.5045 9.75945 19.6361 9.0909 19.6361C7.74071 19.6361 6.44582 19.0998 5.49109 18.145C4.53636 17.1903 4 15.8954 4 14.5452C4 13.195 4.53636 11.9002 5.49109 10.9454C5.91297 10.5235 6.40128 10.1833 6.93143 9.93503C6.91639 9.77618 6.90878 9.61606 6.90878 9.45516C6.90878 8.10497 7.44514 6.81008 8.39987 5.85535ZM7.28935 11.3865C7.01011 11.5458 6.75089 11.7427 6.51961 11.9739C5.83766 12.6559 5.45454 13.5808 5.45454 14.5452C5.45454 15.5097 5.83766 16.4346 6.51961 17.1165C7.20156 17.7985 8.12648 18.1816 9.0909 18.1816C9.56843 18.1816 10.0413 18.0875 10.4825 17.9048C10.6295 17.8439 10.772 17.7735 10.9093 17.6943C10.2063 16.8013 9.81847 15.6933 9.81847 14.5452C9.81847 14.3845 9.82608 14.2245 9.84109 14.0658C9.3106 13.8174 8.82199 13.4771 8.39987 13.055C7.91812 12.5732 7.5429 12.0049 7.28935 11.3865ZM13.091 17.6943C13.6391 18.0108 14.2654 18.1816 14.9094 18.1816C15.3869 18.1816 15.8598 18.0875 16.3009 17.9048C16.7421 17.722 17.143 17.4542 17.4807 17.1165C17.8183 16.7789 18.0862 16.378 18.2689 15.9368C18.4517 15.4956 18.5457 15.0228 18.5457 14.5452C18.5457 14.0677 18.4517 13.5948 18.2689 13.1537C18.0862 12.7125 17.8183 12.3116 17.4807 11.9739C17.2507 11.744 16.9915 11.5464 16.7102 11.3861C16.4566 12.0046 16.0813 12.5731 15.5995 13.055C15.1776 13.4769 14.6893 13.8171 14.1591 14.0654C14.1742 14.2246 14.1818 14.3847 14.1818 14.5452C14.1818 15.2138 14.0501 15.8758 13.7943 16.4934C13.6156 16.9249 13.3787 17.3288 13.091 17.6943ZM12.7269 14.4939C12.7271 14.511 12.7273 14.5281 12.7273 14.5452C12.7273 15.0228 12.6332 15.4956 12.4505 15.9368C12.3337 16.2186 12.1823 16.4839 12.0001 16.7269C11.5309 16.1012 11.273 15.3365 11.273 14.5452C11.273 14.5281 11.2731 14.5111 11.2734 14.494C11.5125 14.5285 11.7552 14.5461 11.9997 14.5461C12.2445 14.5461 12.4874 14.5284 12.7269 14.4939ZM13.8012 12.6139C14.0805 12.4546 14.3397 12.2577 14.571 12.0265C14.8895 11.7079 15.1429 11.3363 15.3225 10.9324C15.1856 10.9168 15.0477 10.9089 14.9094 10.9089C14.2654 10.9089 13.6391 11.0797 13.091 11.3962C13.3787 11.7616 13.6156 12.1656 13.7943 12.597C13.7966 12.6026 13.7989 12.6083 13.8012 12.6139ZM12.0001 12.3636C12.1637 12.5817 12.3025 12.8179 12.4136 13.0679C12.2769 13.0836 12.1387 13.0915 11.9997 13.0915C11.861 13.0915 11.7231 13.0836 11.5866 13.068C11.6971 12.8194 11.8356 12.5829 12.0001 12.3636ZM10.9093 11.3962C10.6158 11.769 10.3772 12.1793 10.1989 12.6143C9.91935 12.455 9.65987 12.2579 9.42839 12.0265C9.10984 11.7079 8.85649 11.3363 8.67694 10.9325C8.8137 10.9168 8.95189 10.9089 9.0909 10.9089C9.56843 10.9089 10.0413 11.0029 10.4825 11.1857C10.6295 11.2466 10.772 11.3169 10.9093 11.3962ZM12.0001 10.3675C11.7003 10.1587 11.3782 9.98232 11.0391 9.84185C10.4214 9.58601 9.75945 9.45433 9.0909 9.45433C8.84611 9.45433 8.60314 9.47196 8.36368 9.50652C8.36344 9.48941 8.36332 9.47229 8.36332 9.45516C8.36332 8.49074 8.74644 7.56582 9.42839 6.88387C10.1103 6.20192 11.0353 5.8188 11.9997 5.8188C12.9641 5.8188 13.889 6.20192 14.571 6.88387C15.2529 7.56581 15.636 8.49074 15.636 9.45516C15.636 9.47225 15.6359 9.48934 15.6357 9.50641C15.3957 9.47181 15.153 9.45433 14.9094 9.45433C13.862 9.45433 12.848 9.77707 12.0001 10.3675Z" fill="black"/>
</svg>
