<svg  viewBox="0 0 12 12" fill="none" xmlns="http://www.w3.org/2000/svg">
<path fill-rule="evenodd" clip-rule="evenodd" d="M9.87385 2.61423C10.1223 2.81958 10.1573 3.18748 9.95195 3.43596L5.25926 9.11463L5.25785 9.11633C5.15111 9.2445 5.01714 9.34729 4.8657 9.41715C4.71425 9.48708 4.54913 9.52233 4.38234 9.5204C4.21283 9.5183 4.04547 9.47779 3.89384 9.40198C3.74271 9.32645 3.6106 9.21771 3.50736 9.08399C3.50701 9.08353 3.50666 9.08312 3.50631 9.08265L2.03728 7.1939C1.83938 6.93945 1.88522 6.57275 2.13966 6.37484C2.39411 6.17693 2.76082 6.22278 2.95873 6.47722L4.39664 8.32598L9.0521 2.69235C9.25744 2.44386 9.62538 2.40889 9.87385 2.61423Z" fill="white"/>
</svg>
