<svg width="20" height="20" viewBox="0 0 20 20" fill="none" xmlns="http://www.w3.org/2000/svg">
<path fill-rule="evenodd" clip-rule="evenodd" d="M3.99813 0.500002L4 0.5H16L16.0019 0.500002C16.5314 0.501114 17.0387 0.659359 17.4131 0.94016C17.7875 1.22096 17.9985 1.60149 18 1.9986L17.9864 1.99863C17.9865 1.99954 17.9867 2.00046 17.9869 2.00137L18 2.0014C17.9999 2.02732 17.9989 2.05317 17.997 2.07892C17.999 2.10227 18 2.12598 18 2.15V4.42857V9.57143V12.6V13.85V15.4C18 16.1775 17.5976 16.8563 16.9995 17.2194C16.9998 17.2295 17 17.2397 17 17.25V18.2812C17 18.6045 16.8973 18.9145 16.7144 19.143C16.5316 19.3716 16.2836 19.5 16.025 19.5H14.975C14.7164 19.5 14.4684 19.3716 14.2856 19.143C14.1027 18.9145 14 18.6045 14 18.2812V17.5H6V18.2812C6 18.6045 5.89728 18.9145 5.71443 19.143C5.53158 19.3716 5.28358 19.5 5.025 19.5H3.975C3.71642 19.5 3.46842 19.3716 3.28557 19.143C3.10272 18.9145 3 18.6045 3 18.2812V17.25C3 17.2397 3.00017 17.2295 3.00049 17.2194C2.40242 16.8563 2 16.1775 2 15.4V13.85V12.6V9.57143V4.42857V2.15C2 2.12598 2.001 2.10227 2.00296 2.07892C2.00109 2.05317 2.0001 2.02732 2 2.0014L2.01313 2.00137L2.01363 1.99863L2 1.9986C2.00148 1.60149 2.21248 1.22096 2.58688 0.94016C2.96128 0.659359 3.46865 0.501114 3.99813 0.500002ZM16.4703 2.35273C16.3452 2.44655 16.1758 2.49948 15.9989 2.5H10H4.00111C3.82423 2.49948 3.65478 2.44655 3.52969 2.35273C3.40486 2.25911 3.33432 2.13236 3.33334 2C3.33432 1.86764 3.40486 1.74089 3.52969 1.64727C3.65477 1.55345 3.82422 1.50052 4.00109 1.5H15.9989C16.1758 1.50052 16.3452 1.55345 16.4703 1.64727C16.5951 1.74089 16.6657 1.86764 16.6667 2C16.6657 2.13236 16.5951 2.25911 16.4703 2.35273ZM9 3.78571H4C3.63181 3.78571 3.33333 4.07353 3.33333 4.42857V9.57143C3.33333 9.92647 3.63181 10.2143 4 10.2143H9V3.78571ZM11 10.2143V3.78571H16C16.3682 3.78571 16.6667 4.07353 16.6667 4.42857V9.57143C16.6667 9.92647 16.3682 10.2143 16 10.2143H11ZM3.33333 12.6C3.33333 12.2134 3.63181 11.9 4 11.9H16C16.3682 11.9 16.6667 12.2134 16.6667 12.6V15.4C16.6667 15.7866 16.3682 16.1 16 16.1H4C3.63181 16.1 3.33333 15.7866 3.33333 15.4V12.6ZM14.5 12.5C13.6716 12.5 13 13.1716 13 14C13 14.8284 13.6716 15.5 14.5 15.5C15.3284 15.5 16 14.8284 16 14C16 13.1716 15.3284 12.5 14.5 12.5ZM4 14C4 13.1716 4.67157 12.5 5.5 12.5C6.32843 12.5 7 13.1716 7 14C7 14.8284 6.32843 15.5 5.5 15.5C4.67157 15.5 4 14.8284 4 14Z" fill="#232323"/>
</svg>
