<svg width="20" height="20" viewBox="0 0 20 20" fill="none" xmlns="http://www.w3.org/2000/svg">
<path d="M10 8.04V10.328C10 10.4766 10.059 10.619 10.164 10.724L11.4 11.96M3 6.36V5.8C3 4.2536 4.2536 3 5.8 3H6.36M13.64 3L14.2 3C15.7464 3 17 4.2536 17 5.8V6.36M5.52 15.04L3.56 17M16.44 17L14.48 15.04M16.16 10.56C16.16 13.9621 13.4021 16.72 10 16.72C6.59793 16.72 3.84 13.9621 3.84 10.56C3.84 7.15793 6.59793 4.4 10 4.4C13.4021 4.4 16.16 7.15793 16.16 10.56Z" stroke="#555555" stroke-width="1.4" stroke-linecap="round"/>
</svg>
