<svg width="20" height="20" viewBox="0 0 20 20" fill="none" xmlns="http://www.w3.org/2000/svg">
<path d="M13.8889 14H15.4444C15.857 14 16.2527 13.842 16.5444 13.5607C16.8361 13.2794 17 12.8978 17 12.5V9.5C17 9.10218 16.8361 8.72064 16.5444 8.43934C16.2527 8.15804 15.857 8 15.4444 8H4.55556C4.143 8 3.74733 8.15804 3.45561 8.43934C3.16389 8.72064 3 9.10218 3 9.5V12.5C3 12.8978 3.16389 13.2794 3.45561 13.5607C3.74733 13.842 4.143 14 4.55556 14H6.11111" stroke="#555555" stroke-width="1.4" stroke-linecap="round" stroke-linejoin="round"/>
<path d="M14 8V4.66667C14 4.22464 13.8314 3.80072 13.5314 3.48816C13.2313 3.17559 12.8243 3 12.4 3H7.6C7.17565 3 6.76869 3.17559 6.46863 3.48816C6.16857 3.80072 6 4.22464 6 4.66667V8" stroke="#555555" stroke-width="1.4" stroke-linecap="round" stroke-linejoin="round"/>
<path d="M11.8 11H8.2C7.53726 11 7 11.6716 7 12.5V15.5C7 16.3284 7.53726 17 8.2 17H11.8C12.4627 17 13 16.3284 13 15.5V12.5C13 11.6716 12.4627 11 11.8 11Z" stroke="#555555" stroke-width="1.4" stroke-linecap="round" stroke-linejoin="round"/>
</svg>
