<svg width="16" height="16" viewBox="0 0 16 16" fill="none" xmlns="http://www.w3.org/2000/svg">
<path fill-rule="evenodd" clip-rule="evenodd" d="M7.61505 7.6398V5.04356H8.3843V7.6398C8.3843 7.6653 8.39443 7.68976 8.41247 7.70779C8.4305 7.72582 8.45496 7.73595 8.48046 7.73595H11.846C11.977 7.73595 12.1071 7.71359 12.2306 7.66985C12.4554 7.59004 12.6499 7.44266 12.7877 7.24792C12.9254 7.05317 12.9995 6.82059 12.9998 6.58207V6.19744C12.9998 5.89141 12.8783 5.59792 12.6619 5.38152C12.4455 5.16513 12.152 5.04356 11.846 5.04356H10.8714C10.863 5.04342 10.8548 5.0411 10.8476 5.03683C10.8404 5.03256 10.8345 5.02647 10.8303 5.01919C10.8262 5.0119 10.8241 5.00366 10.8241 4.99529C10.8241 4.98691 10.8263 4.97869 10.8305 4.97144C11.0531 4.59568 11.1254 4.14967 11.0329 3.72285C10.9404 3.29602 10.69 2.91994 10.3319 2.67001C9.97371 2.42008 9.53433 2.31477 9.1018 2.37521C8.66928 2.43565 8.27559 2.65736 7.99968 2.99589C7.72376 2.65736 7.33007 2.43565 6.89755 2.37521C6.46502 2.31477 6.02564 2.42008 5.6675 2.67001C5.30935 2.91994 5.05893 3.29602 4.96645 3.72285C4.87396 4.14967 4.94625 4.59568 5.16881 4.97144C5.173 4.97869 5.17522 4.98691 5.17526 4.99529C5.17529 5.00366 5.17314 5.0119 5.16901 5.01919C5.16488 5.02647 5.15892 5.03256 5.15172 5.03683C5.14451 5.0411 5.13632 5.04342 5.12795 5.04356H4.1534C3.84737 5.04356 3.55387 5.16513 3.33748 5.38152C3.12108 5.59792 2.99951 5.89141 2.99951 6.19744V6.58207C2.99985 6.82059 3.07396 7.05317 3.21168 7.24792C3.3494 7.44266 3.54399 7.59004 3.76877 7.66985C3.89229 7.71359 4.02236 7.73595 4.1534 7.73595H7.51889C7.54439 7.73595 7.56885 7.72582 7.58688 7.70779C7.60492 7.68976 7.61505 7.6653 7.61505 7.6398ZM8.3843 5.04356V4.08199C8.3843 3.89181 8.4407 3.7059 8.54636 3.54777C8.65202 3.38964 8.80219 3.26639 8.9779 3.19361C9.1536 3.12083 9.34694 3.10179 9.53347 3.13889C9.71999 3.176 9.89133 3.26758 10.0258 3.40205C10.1603 3.53653 10.2519 3.70787 10.289 3.89439C10.3261 4.08092 10.307 4.27426 10.2342 4.44996C10.1615 4.62567 10.0382 4.77584 9.88009 4.8815C9.72196 4.98716 9.53605 5.04356 9.34587 5.04356H8.3843ZM7.61505 5.04356V4.08199C7.61506 3.94991 7.58786 3.81926 7.53514 3.69816C7.48243 3.57706 7.40534 3.46812 7.30867 3.37813C7.21201 3.28814 7.09784 3.21902 6.97328 3.1751C6.84873 3.13117 6.71646 3.11338 6.58473 3.12282V3.12306C6.33677 3.14148 6.10558 3.25523 5.93969 3.44043C5.7738 3.62564 5.6861 3.86791 5.69499 4.11639C5.70389 4.36487 5.80869 4.60025 5.9874 4.77312C6.16611 4.94599 6.40484 5.04292 6.65348 5.04356H7.61505ZM3.76858 11.5823C3.76858 11.9903 3.93067 12.3816 4.2192 12.6702C4.50773 12.9587 4.89905 13.1208 5.30709 13.1208H7.5187C7.54421 13.1208 7.56866 13.1106 7.5867 13.0926C7.60473 13.0746 7.61486 13.0501 7.61486 13.0246V8.60139C7.61486 8.57589 7.60473 8.55143 7.5867 8.5334C7.56866 8.51537 7.54421 8.50524 7.5187 8.50524H3.96089C3.90989 8.50524 3.86097 8.5255 3.82491 8.56156C3.78884 8.59763 3.76858 8.64655 3.76858 8.69755V11.5823ZM10.6922 13.1208H8.48061C8.45511 13.1208 8.43065 13.1106 8.41262 13.0926C8.39458 13.0746 8.38445 13.0501 8.38445 13.0246V8.60139C8.38445 8.57589 8.39458 8.55143 8.41262 8.5334C8.43065 8.51537 8.45511 8.50524 8.48061 8.50524H12.0384C12.0894 8.50524 12.1383 8.5255 12.1744 8.56156C12.2105 8.59763 12.2307 8.64655 12.2307 8.69755V11.5823C12.2307 11.9903 12.0686 12.3816 11.7801 12.6702C11.4916 12.9587 11.1003 13.1208 10.6922 13.1208Z" fill="#555555"/>
</svg>
