<svg width="28" height="28" viewBox="0 0 28 28" fill="none" xmlns="http://www.w3.org/2000/svg">
<path d="M5.83301 13.7473C5.83301 12.3489 6.10601 11.0694 6.65201 9.909C7.19801 8.74778 7.84862 7.71256 8.60384 6.80333C9.35906 5.89333 10.133 5.11828 10.9255 4.47817C11.7181 3.83806 12.3539 3.34533 12.833 3V4.764C12.833 5.84278 13.1958 6.69561 13.9215 7.3225C14.6472 7.94939 15.4607 8.26322 16.3622 8.264C16.7378 8.264 17.0948 8.20333 17.4332 8.082C17.7715 7.96067 18.0974 7.78178 18.4108 7.54533L18.9125 7.151C19.9088 7.90778 20.7002 8.86094 21.2867 10.0105C21.8731 11.1601 22.1663 12.4057 22.1663 13.7473C22.1663 15.5331 21.6585 17.1159 20.6427 18.4957C19.6269 19.8754 18.3265 20.8391 16.7413 21.3867C17.1613 21.025 17.49 20.5933 17.7272 20.0917C17.9644 19.59 18.083 19.0502 18.083 18.4723C18.083 17.9489 17.9819 17.4429 17.7797 16.9545C17.5775 16.4661 17.2866 16.0321 16.907 15.6525L13.9997 12.8093L11.1215 15.6525C10.7365 16.0367 10.4394 16.4684 10.2302 16.9475C10.021 17.4258 9.91634 17.9341 9.91634 18.4723C9.91634 19.0494 10.035 19.5892 10.2722 20.0917C10.5094 20.5941 10.838 21.0258 11.258 21.3867C9.6729 20.8391 8.37245 19.8754 7.35667 18.4957C6.3409 17.1159 5.83301 15.5331 5.83301 13.7473ZM13.9997 14.438L16.0752 16.4773C16.3458 16.748 16.5535 17.0502 16.6982 17.3838C16.8428 17.7175 16.9156 18.0803 16.9163 18.4723C16.9163 19.2602 16.6325 19.9338 16.0647 20.493C15.4953 21.0514 14.807 21.3307 13.9997 21.3307C13.1923 21.3307 12.504 21.0514 11.9347 20.493C11.3653 19.9346 11.0815 19.261 11.083 18.4723C11.083 18.0998 11.1518 17.7459 11.2895 17.4107C11.4272 17.0754 11.6387 16.7643 11.9242 16.4773L13.9997 14.438Z" fill="#DB6565"/>
</svg>
