<svg width="28" height="28" viewBox="0 0 28 28" fill="none" xmlns="http://www.w3.org/2000/svg">
<path d="M20.9106 12.9529V11.7862H24.679V12.9529H20.9106ZM22.1765 19.4252L19.1606 17.163L19.8875 16.239L22.9033 18.5L22.1765 19.4252ZM19.7976 8.26117L19.0708 7.33717L22.0866 5.07617L22.8135 6.00017L19.7976 8.26117ZM6.41713 19.6668L5.41713 15.2242H3.3208V9.19817H9.5578L14.1801 6.46117V17.9612L9.5578 15.2242H7.5838L8.5838 19.6668H6.41713ZM16.244 15.7389V9.0002C16.6344 9.36187 16.949 9.83709 17.1878 10.4259C17.4258 11.0139 17.5448 11.6618 17.5448 12.3695C17.5448 13.0773 17.4258 13.7252 17.1878 14.3132C16.9498 14.9012 16.6352 15.3764 16.244 15.7389Z" fill="#11227B"/>
</svg>
