<svg  viewBox="0 0 20 20" fill="none" xmlns="http://www.w3.org/2000/svg">
<path d="M16.0007 16.6663C14.4995 16.6663 12.9945 16.3208 11.4857 15.6297C9.97676 14.9386 8.58648 13.9572 7.31482 12.6855C6.05371 11.4144 5.0751 10.0197 4.37898 8.50134C3.68232 6.98301 3.33398 5.48245 3.33398 3.99967V3.33301H7.03232L7.73982 6.73551L5.49232 8.82717C5.87287 9.48606 6.26676 10.088 6.67398 10.633C7.08065 11.1775 7.50482 11.6688 7.94648 12.1072C8.39204 12.5738 8.89426 13.01 9.45315 13.4155C10.0126 13.8211 10.6501 14.2211 11.3657 14.6155L13.5423 12.3588L16.6673 12.9888V16.6663H16.0007ZM5.10148 8.04467L6.84482 6.44467L6.36315 4.16634H4.17148C4.18815 4.8019 4.27371 5.44217 4.42815 6.08717C4.58371 6.73162 4.80815 7.38412 5.10148 8.04467ZM12.1432 14.9897C12.6559 15.2475 13.2365 15.4486 13.8848 15.593C14.5326 15.7375 15.1823 15.8141 15.834 15.823V13.6538L13.844 13.258L12.1432 14.9897Z" fill="black"/>
</svg>
