<svg width="20" height="20" viewBox="0 0 20 20" fill="none" xmlns="http://www.w3.org/2000/svg">
<path d="M12 4V6" stroke="#555555" stroke-width="1.4" stroke-linecap="round" stroke-linejoin="round"/>
<path d="M12 9V10" stroke="#555555" stroke-width="1.4" stroke-linecap="round" stroke-linejoin="round"/>
<path d="M12 13V15" stroke="#555555" stroke-width="1.4" stroke-linecap="round" stroke-linejoin="round"/>
<path d="M4.55556 4H15.4444C15.857 4 16.2527 4.16556 16.5444 4.46026C16.8361 4.75496 17 5.15466 17 5.57143V7.92857C16.5874 7.92857 16.1918 8.09413 15.9001 8.38883C15.6083 8.68353 15.4444 9.08323 15.4444 9.5C15.4444 9.91677 15.6083 10.3165 15.9001 10.6112C16.1918 10.9059 16.5874 11.0714 17 11.0714V13.4286C17 13.8453 16.8361 14.245 16.5444 14.5397C16.2527 14.8344 15.857 15 15.4444 15H4.55556C4.143 15 3.74733 14.8344 3.45561 14.5397C3.16389 14.245 3 13.8453 3 13.4286V11.0714C3.41256 11.0714 3.80822 10.9059 4.09994 10.6112C4.39167 10.3165 4.55556 9.91677 4.55556 9.5C4.55556 9.08323 4.39167 8.68353 4.09994 8.38883C3.80822 8.09413 3.41256 7.92857 3 7.92857V5.57143C3 5.15466 3.16389 4.75496 3.45561 4.46026C3.74733 4.16556 4.143 4 4.55556 4" stroke="#555555" stroke-width="1.4" stroke-linecap="round" stroke-linejoin="round"/>
</svg>
